<svg id="_1_Mickey_Image" data-name="1 Mickey Image" xmlns="http://www.w3.org/2000/svg" viewBox="0 0 1156.07 1070.09"><path d="M1126.66,1244.82c-12.74,3.57-29.35-7.79-10-10.64,42.65,7.44,120.3-25.67,84.28-77.38-70-70.54-177.91-88.12-262.88-136.87-87.49-21.47-148.79-125.54-122-74.68,33,44.19,58.36,130.47,91.3,156,14.76-46.51,105.33-63.12,117-6.76,2.79,10.7,19,3.24,24.77,13.78,27.21,89.79-141.05,107.35-8.52,110,45.75,29-75.25,52.67-95.08,37.36-21.06-5.72-38.47-21.37-58.61-27.37-22,2.11-59.69-9.89-53.74-37.38-4.47-23.74,8.24-35.53,15.26-52.95-3.83-15.24,2-26.72,18.6-27-11.43-46.37-69.88-110.61-90.62-166.53-9.4-20.45-50.71,1.93-51.17-28-.44-7.52-.46-7.63-7.83-8.58-18.58-5.54-30.35,7-49.24,6.28-10.64,1.69,3.17,17.16,3.48,23.94,20,38.79,25.21,94.26,53.83,124.59,15.19,2.09,29.93,8.13,41,18.56,9.22,12.81-1.39,25.77-3.87,37.91,3.69,16.94,18.21,44.75.95,56.65-32.09,18.35-56.79,10.07-84.53-2.39-16.83,7.71-34.06,10.14-52.47,6.75-27.42-7.51-125.77-3.72-91.88-51.78,8.63-24.22,14.42-64.57,50.11-58.14,29.05.47,61.15,31.79,80.83,2.64,43.53-16-28-118.75-31.61-156.32-56.26-27.07-35.8-37.07-42.85-87.36-37.35-90.43,77.88-131.35-83.8-84.4-.84,54.63-3.88,111.41-11.16,164,11,32.27,61.05,71.07,28.55,104-19.35,13.2-38.36,14.4-53.4-8-18-4.58-33.93,68.11-81.77,82.56-109.09,33-84.14-46.67-121.65,79-12.33,21.24-55.52,19.18-63-4.21-16.81-38.92,19.37-75.27,10.87-109.64-44.18-63.87-58.94-145-67.05-220.84-1.11-17.7-24.6,3.52-34.84,3.69-45.83,16.78-65.26-48.74-34-75.5,16.16-19.48,57.18-13.26,66-35.52.06-86.44,3-175.13,26.64-258.55-11.87-40.06-63.68-71.88-60.64-120.92,1-30.26,38.91-49.08,60-25.94,14.5,8.27,20.68,47.52,33.64,45.51,36.64-93.46,111.5-74.21,183.89-84.12,5.37-27.63,13.62-71.14,51.18-61.94,54.23,10.5,20.42,79.33,13,114.35C465.34,395,495.79,459,499.62,526c39.21-7.68,117.53-15.17,118.24,50.33-2.39,12.21,10.62,11.88,19.91,10-6.28-15-15-28.87-10.17-45.39-1.83-18.92,7.2-34.21,11.47-49.33-6.1-12.88-5.67-25.78.49-38.48,15.48-18.9-8-41.57-6.58-64.07-5.47-32.89,46.24-36.65,51.91-6.09,3.92,40.35,15.77,32.07,45.43,48,19.22,3.07,39.2-18.93,58.84-24.2-12.31-44.46-3.6-113.39,56.17-66.91,6.76,4.07,9.46,22.68,19.4,14.24,21.76-21.82,53-.16,75.68-13.16,18.74-24.23,61.5-37.37,69.7-65.31-40.14-63,70-119.15,108.75-61.07,23.49,28.77,10.58,66.17,24.86,97.87,25.28,46.13-21.57,104.22-72,90.27-17.14.76-25.35,18.66-37.91,27.87-13.68,16.57-44.22,30-49.63,48.9,5.29,7.92,4.92,7.64,12.76,2.33,67.91-48.41,156.31,33.71,106.83,104-22.94,40.42-82.25,60.77-120.44,29.28-5-3.7-5.21-3.2-9,1.44-12.46,20.77-35.91,34.1-46.85,54-1.7,14.51-7.74,26.56-20.81,34.44-12,13.25-50.71,39-46.76,55.68,7.62,36.62-1.18,79.35-26.47,107.43-7.51,9.93,17.33,21.71,4.78,33.41-32.18,110.19,316.52,166.19,373,250.12C1246.25,1207.44,1176.93,1248.18,1126.66,1244.82ZM500.12,656.58c8.26-99.22-53.3-511.11-205.24-309.78-97.41,182.94-94.18,411.5-40,607.61,110.26,297.81,259.8,7,244.08-168.72,1.56-20.3,5.17-63.48-24.41-38.91.14,68.34-13,137.55-39.11,201-61.77,122.81-143.72-1.66-153.31-83.83-18-123.51-17.94-253.64,15.08-374.53,32.8-142.81,126.54-146.76,154.69.28,14.6,68.78,22.75,139.14,23,209.48C503.38,720.36,501.41,676.67,500.12,656.58ZM656.5,571.83c-5.06,37.6,32.94,56.78,61.56,39-3.56,9.24-11.44,9.63-4.93,20.14,42.71,56.79,122.85-13.57,178.62-2.36,16.83-16.08,17.17-52.72,12.49-75.54,13,5.14,6,53.6-1,72.65-4.76,12.3,13.63,11.5,16.25,22.33,2.65,6,5.83,6.6,10.09,1.78,55.82-45.77,19.5-126.66-43.31-137,63.34-3.62,83-79.85,14.69-98.16-19.55-3.85-46.3-6.94-51.24,16.33-23.91,26.75-79,33.5-27.9-6.86,12.46-18.49-11.48-16.35-23.37-12.14-31.84,47.08-76.42,6.94-43.65,68.8-9.46-3.13-22.11-56-52.48-55.64-27.12-.07,6.09,22.38-52.08,24.29-36.73,69.09,44.4,22.9,55.22,75.6C658.86,466.21,611.31,507.06,656.5,571.83ZM153.6,676.57c6.84,10.74-10.56,57.94,11.64,48.6,29.16-7.81,46.14,27.81,37.37,51.42-4.68,24.46-41.6,26.39-46.94,46.77,14.25,70.09,21.88,172.27,74.82,217.48,65.8-41.91,51.53,46.54,67.23,43.57,93.16,21.25-29.43-32.56-31.94-77.32-42.53-113.49-56.27-237.25-54.21-357.91C222.47,525,235.69,385.31,328,292.91c-67-3.93-141.6,62.17-102.4,128.6,4.86,47.72-39.6,29.55-44.6,50.69C165.15,539.07,156.52,607.93,153.6,676.57Zm510,230.93c6,1,26.29-.83,13-6.24-67.4-25.88,34.47,5.31,61.64.51,15.38,1.15-13.6,3.76-5.28,16.55,11.93,15.71,38.59-7.66,55-8.46,12.76-6.89,42.13-.83,45.14-16.93-2.71-22.08-14.26-12.78-27.13-6,6.43-16.73,27.83-24.49,34.31-43.42,9.87-16.74,28.65-87.84,2.65-84.75-21.22,49.79-81.15,58.85-128.17,46.16-44.66-10.58-93.54-31.84-87.59-84.8-59.5,17.57-29.78,101.35-21,138C575.46,884.87,637.19,913,663.64,907.5Zm440.45-566.69c-11.64-98.17-55.6-91.92-114.24-29.27-10.24,10.3,26.07,14.46,11.78,25.72-41.76,41.12-75.12,21.93-106.25,52.71,7.1,25.95,55.93,43.34,71.45,72.3,5.5,7.18,6.08,7,13.71,1.76C1023.31,427.2,1079.69,392.89,1104.09,340.81ZM709.46,1162.53c30.38-3.78,68.83-.39,42.63-42.65-8.07-18.42,34.32-23.54-19.77-45.46-7.75-2.53-1.89,8.11-.09,11,7.46,15.61-27.26,18.27-34.88,9.41-1.67-1.83-4.22-4-.33-6.42,4.86-16.8-22-17.87-29.59-6.71-18.63,11,23.78,31.68-5,20.19-30.62-9.67-78.27-41.33-105.24-12.79-6.25,12.94-19,34.25-1.27,43.75C602.69,1159.84,657.46,1159.65,709.46,1162.53ZM404.71,879.64c-6.8-34.2-35-60.42-44.36-94-1.05-3.08-4.58-3.27-5.65,0-8,57-34.86,117-29.86,174C361.22,1016.25,402.87,913.81,404.71,879.64ZM508.83,689.83c-25.93,26.84,221-27.23,209.7-39.22-10.51-4-9.37-18.05-18.63-21.84-41.13.62-85.14-16.64-115.65,17C525.49,683.28,502.5,613.67,508.83,689.83ZM98.06,828.53c35.53-7.53,72.84-20.41,97.93-47.8C238,668.41-13,781.62,98.06,828.53ZM1010.76,1113c-56.76-5-82.37,53.73-106.26,96.64,14.64,12.52,63.53-10.69,87.06-17.32C1022.61,1180.67,1073.79,1110.74,1010.76,1113Zm-646-682.72c-26.31-67-58.83,64.62-67.58,90.21C293,531,347.43,630.9,343.67,594.77,356,540.58,359.63,485.45,364.8,430.29Zm-146.16.65c-6.34-29.79-40.14-117.73-77-110.73-40,20.58-14.78,65.81,8.35,89.25C161.61,439.49,203.62,480,218.64,430.94Zm666.82,779.63c39.55-33.89,58.54-94.19,4.62-8,12.83-36.45,42.3-92.84,88.27-99.39,9.44-6.59,39.73,4.41,36.19-11-27.93-53.31-111.56-7.23-103.83,44.34-13.15,27.76-26.79-21.1-42.27-17.2-33.28,13.43,6.19,34.28,22.89,39.32-14.2,8.27-27.46-14.42-39-7.89C823.12,1179.36,860,1200.07,885.46,1210.57ZM368.17,611.4c27.88,2.53,26.08-87.28,35-111,5.55-32.3,34.31-113.31-27-85-7.75,52.14-11.25,104.84-19.7,156.9C355.46,589.11,340,616,368.17,611.4Zm96,3.55C454,554.81,453.84,488.79,426,434c-25.23,56.84-18.26,119.36-10.24,179.27C418,624.68,429.53,600.64,464.15,615ZM214.74,1130.18c-5.56,24.83,17.11,52.74,40.19,31.33,13-31,51.17-112.84-1.43-121.32C223.11,1051.39,220.19,1101.37,214.74,1130.18Zm73.07-259.07c37.81,140.28,40.1-26.41,58.83-80.73,1.34-6.1-.09-7.4-6-6.21C294.2,783,302.7,839.62,287.81,871.11Zm162.36-10.9c-17.05-33.93-28.25-102-78.56-79.43-7.57,26.78,32.25,63.62,42.86,92C423.48,900.62,452.26,886.85,450.17,860.21ZM790.9,367.78c-3.9,47.29,43.26,32.23,75.63,38.61,37.71,3.06,48.43,11.43,12.85-16.5C854.57,364.57,800.59,288,790.9,367.78ZM461.29,258.17c-5.79-66-64.34-20.25-64.31,24.09-1.4,20.73,31,27.53,39.67,45.87C453.59,325.56,458.53,277.23,461.29,258.17ZM369.35,994.73c49.69-3.63,72.35-62.18,79-103.77-24.9,10.66-35.1-10.79-38.87,1.53C401.36,959.22,329.78,988.88,369.35,994.73Zm159.43-6.67c-5.13-22.56-19.58-42-30.91-61.87-12.47-7.28-23.78,52.24-24.61,67.95C484.38,1023.17,524.74,1022.9,528.78,988.06ZM468.54,769.73c3-28-7.88-27.94-32-23.47-12.59,2.16-12.57,34.4-11.43,45.36C465.31,884.28,461.65,839.55,468.54,769.73Zm-131.7-140c-3.42-28.94-26.74-56.6-40.91-82.85-17.95,8.06-12.29,71.59,7.3,91.6C313.45,646.42,341.59,650.31,336.84,629.73Zm83.55,57.9c.43-30.09-22.21-108.77-49.92-46.75-17,32.89,35.8,15,37.34,41.75C406.81,706.62,417.89,720.45,420.39,687.63Zm42.07-45c4.94-32.33-45.35-34.42-44.13-4.7,4.81,9.16,2,27.67,12.56,31.43C443.18,663.36,464.14,660.38,462.46,642.63Zm176.37,531c90.73-1.83-63.86-13.6-97-40.49C511.32,1167.59,617.9,1170.49,638.83,1173.66ZM936,367c15.93-1.94,61.22-24,60.56-39.89-6.24-1.92-14.14-10.32-20-4.81C968.38,334.13,915.81,359.37,936,367ZM430.93,693.66c-3.58,19.83,11.37,14.28,25.7,13.34,18.58.48,6.58-28.68,10.09-41C468.56,657.41,421.07,677.81,430.93,693.66ZM375.65,386.12c-15.16.17-32.47,13.67-11.67,24.54,6.13,5.41,6.49-8.34,14.07-6.89C419.82,410.84,405.23,392.74,375.65,386.12ZM281.43,826.83c4.59,42.82,14-14.23,20.3-30.36,3.39-9.77-9.72-7.15-15-10.21C274.53,786.22,284.5,816.52,281.43,826.83Zm63.74-195.76c-5.28,38.09,19.59,12.7,24.29-7.8C371.42,616.11,336,610.45,345.17,631.07Zm369.94,548c15.52-.45,36.13-2.62,46.5-14.7C749.11,1161.74,660.53,1170.84,715.11,1179ZM389.55,604.6c-1.56,7,19.6,12.54,18.39,4.95-3.23-11.49,1.39-40.92-6.23-43.74C397.13,578.56,393.64,591.69,389.55,604.6Zm.88,167.31c7.26-.58,19.17-12.89,18.59-19.74C398,739.06,365.61,766.59,390.43,771.91ZM650.78,573.72c1.55-8.3-7.65-21-14.94-26.65C626.79,556.23,648.13,596.22,650.78,573.72ZM870,1216.06c7.54-2.9-23.34-22.56-28.07-18.36C840.28,1210.77,859,1214.29,870,1216.06ZM281.09,636.42c.38,10.23-2,17.41,10.2,11.4C297,638.45,278.84,605.3,281.09,636.42ZM421.85,753.05c-4.45-6.8-8.28,10.83-9.82,14.33C417.43,784.09,421,761.22,421.85,753.05ZM811.19,911.13c-4.39.11-13.86,3.78-6,6.28C807.18,916.56,815.75,912.6,811.19,911.13Z" transform="translate(-64.71 -190.31)"/><path d="M688.43,569.67c-3.73,34.92-33.89-2-28.44-20.32C667.78,522,691,555.11,688.43,569.67Z" transform="translate(-64.71 -190.31)"/><path d="M732.65,515.32c-8.11,19.47-13.66,38.38-15.2,59.33C716.53,554.4,717,530.34,732.65,515.32Z" transform="translate(-64.71 -190.31)"/><path d="M744.59,624.09c-6.32-4.92-14.13-8.53-18.14-15.85C730.44,613.14,747.56,619.25,744.59,624.09Z" transform="translate(-64.71 -190.31)"/><path d="M641.23,793.17c-1.38,51.11-61.38,13.21-31.74-19.39C621.71,762.83,644.83,776.57,641.23,793.17Zm-3.11,2.31c-3-35.84-43.87-13.25-29.1,13C619.17,822.68,637.94,810.7,638.12,795.48Z" transform="translate(-64.71 -190.31)"/><path d="M727.07,837.4c1.54,23.28-32.52,43.47-45.05,18.67C663.91,820.88,724,800.81,727.07,837.4Zm-43.27,9c2,39.49,56,3,34.72-19.89C705.89,814.13,681.57,829,683.8,846.37Z" transform="translate(-64.71 -190.31)"/></svg>