<svg id="_10_Mickey_Image" data-name="10 Mickey Image" xmlns="http://www.w3.org/2000/svg" viewBox="0 0 1028.23 835.2"><path d="M1147,957c-111.61-4.37-215.18-47.56-305.79-111.31-30.43-22.62-60.35-47.4-75.85-82.45.28,18-30.12,111.23-14.23,110.59,10.7,0,22.74,10.38,17.83,21.53-1.65,4.43-.08,5.86,4.07,5.59,21.72-.71,44.74,8.7,56.74,27.37,16.24,31.42-21.34,45.09-12.56,47.81,23.17,5.45.82,17.4-11,18.47-31.06,3-59.75,22.75-91.63,14-28.18-5.6-40.78-32.86-57.68-53.06-17.72-17.17-9.53-40.72,4.42-57.4,27-13.22-.1-29.69,42.11-34.08,3.16-.38,5.29-1.24,6.34-4.43,12.07-32.53,21.27-65.32,23.44-100,15-46.25-30.48-4-36.41-38.17,2.22-17.46-15-21.52-20.51-5.31C671.45,725.46,663,730.06,653.4,731c-12.31,3.69-31.38-9.46-39,3.83-17.56,31-28.84,65.22-46.71,95.9-5.89,12.63,31.56,15.14,14.54,30.31-6.77,7.72,19.77,12.58,12.5,37.39-10.84,14.83,9.83,24.1-16.57,33-58.77,2.63-130.12,30.34-176.53-19.17-19.92-18.89-3.15-22.57-4.62-41.47-1.06-14.34,2-22.22,16.53-28.8,24.26-12.93,51.22.73,75.45-2.47,15.66-20.46,40.45-.87,44.3-28.35,13.32-30.11,29-59,45.44-87.5,13.77-16.11,11.16-17.48-1.28-32.84-13.06-20,15.09-29.57,15-46.82q-7.25-22-15.21-43.73C545.87,548.11,584.13,495.73,566,501c-27.53,7.66-55.54,9.93-84,8.22-11.71.33-19-11.82-31.26-8.18-14.82-1.59-31.54,3.11-45.11-3.74-7.7-5.4-27.1-12.81-19.45-24.65,15.17-23.9,56.67,6.83,55.67-10.63,5.43-33.64,45.51-5.31,24.39-44.13-6.25-11.83-26.3-5.81-37.25-5.08-19.15,13.4-44.06,19.93-66.32,10.26-16.08-7.5-34,5.28-47.69,13.26-9.23,12.46,11.83,29.26-11.49,52.29-29.29,39.92-72.08,8-75.9,23.69-1.07,8.72-13,20.81-3.86,27.73,18.43,10.61,25,27.65,22.71,47.61C231,639,151.5,641.46,121.66,601.73c-13.26-40.76,27.63-82.47,69.07-72.31,3,.25,4.06-.95,4.91-3.54,22.43-59.66,3.59-18.05-6.68-51.19,1.09-29.79-7.13-77.84,26.24-91.3,72.56-27.08,69.21,25.1,122-20.15,9-17.13,8.57-39.2,26.3-52,38.9-37.44,90.59-19,109.11,21.89,12.07-12.81,22.78-26.92,37.11-37.51,4.93-3.65,4.8-4.53-.89-7.16-74.57-43.51,22.87-129.78,82-110,50.11,8.27,47.64,54.47,21.6,87.4,17.19,1.68,33.8,1.43,48.42,12.49,2.92,1.85,3.72,1.42,4.8-2.2,16.83-63,116.76-69.67,127.87-.83,5.93,77.34-90.12,56.58-75.76,72.81,19,37.87,1.85,82.3-21.24,114.12-8.11,9.43,26,15.54,31.1,23.71,11.2,9,23.94,12.36,37.28,15.08,52.13,9.77,75.71,67.57,71.82,115.63-.86,29-35,50.92-15,80.36,13.32,17.27-50.57,24.3-43.13,38.4,46.13,112.3,184.09,180.15,297.76,201.67q30.87,4.37,61.77,8.33C1147.68,943.1,1147.9,948.43,1147,957ZM825.85,603.76c11.51-142.39-208.55-114-226.27-15.26,24.93-32.81,46.88,11.79,29.58,35.59-19.81,24.38-31.38-9.68-30.66-28.18-14.74,32.51,5,52.86,19.15,79.41-7.61-.85-10.8-9.28-15.48-14.44-10-13.84-24.63,22.79-15.4,30.11,16.72,23.6,62.07,48.2,83.1,18.39,5.35-7.33-2.3-7.7-7.2-10.58-6-11.92,36.49,2.71,45,.43,11.91,1.68,26-5.39,37-1.5-12,9.51-46.26-2.6-36.49,23.2,6.4,10.42,37.76-10.36,49.72-11.07,16.3-6.63,36.11-8.26,50.64-17.74,1.74-3.39-1.76-12.14-5.35-13.77C790.47,667.44,834.88,632.8,825.85,603.76ZM504.4,505.4c27.56-2,56.7-6.06,80.73-19.83,10.54-10.85,24.58-16.06,37.77-22.84,5.86-3,6.21-4.25,2.54-9.87-24.66-38.74-62-72.83-108.21-82.09-19.39-2.48,17.33,59.51-5.6,63.34-19.95-5.33-12.2-43.95-14-60.87.49-10.21-12.14-5.41-18.4-6.34-13.07,1.54,5.32,17.65,4.08,24.82,5.29,19.79-4.17,44.53,9.83,61,3,2.16,4.68,7.39-.46,5.66-10.92-22.79-58.11-6.11-35.77,14.73C484.92,495.79,447.05,500.69,504.4,505.4ZM737.19,986c13.76-3.8,79-11.4,77.06-27.48,24.45-39-41.92-56.46-69.92-44.41-20.14-3.68,38.3-19.84,1.56-32.61-7.61.71,5.09,8.27-2.76,11.56-12.52,10.57-43.63,10.4-41.6-11.62.12-1.25-2.46-3.93-2.63-3.84-11.28,4.07-18.07,12.14-3.77,20,6.78,3,16.94,1.27,21.24,8.06-5.29,6.57-21.49,2.77-28.15-2.24-5.14-4.39-11.17-3-15.1.83-5.87,7.45-18.4,15.25-9.42,25C683.51,955.12,698.29,986.58,737.19,986ZM717.94,379.22c-3.17-83.16-87.6-59-121.73-8.39-3.39,12.93,27.32,27.84,35.15,39.05,11.17,12.42,16.89-51.24.75-40.4-13.16-2,22-17.9,26.7-13.75-7.22,6.21-16.16,3.58-12.75,16C636.32,483.58,706.79,497.12,717.94,379.22ZM498.54,924.28c25.39-1.38,47.81-1.61,70.55-11.57,6.42-6.19,18.8-13.49,15.65-23.77-2.48-11-9.92-22.84-22.93-18.38-24.08,3.9-7.27-5.93,3-11.38-11.9-4.61-25.15,8.08-36.41-2.11-2.74,1.18-.14,5.24-5.94,4.86-25.93-1.54-48.91-16.91-76.26-14.85-62.54-7.08-33.94,68.24,7.74,72.68C469.37,922,485,923,498.54,924.28ZM183.21,537c-26.86-7.43-62.17,23.2-56.73,55.54C140,625.08,190,630,218.63,613.52c35.24-17,24.35-70.45-13.11-74.34,8.49-7.44,30.21-36.57,14.38-44.64-5.1-1.91-6.47,2.27-7.72,5.56C204.31,514.44,205.81,542.53,183.21,537Zm125-76.3c.35-9.18-2.94-17-6.65-24.61-2.75-8.26-7.13-1.44-13.18-2.28-1.3-21.64,61.41-43.63,54.56-59.65-7.37-5.11-17,8.51-24.41,11.22-18.15,9.11-29.73,27.36-46.08,37.52-.35-2.07-.62-3.95.91-5.64,4.95-9.08-10.3-6.56-15.07-5.76-21.58,5.57-36.24,19.18-43.61,40C199.52,514,307.8,523.05,308.26,460.69ZM591.44,339.83c-1.66-110.11-99.16-18.64-70.16,1,20.54,7.7,40.22,17.38,59.72,27.37C593.46,371.17,588.15,347.56,591.44,339.83Zm12.29,267.06c13.52,61.26,45.08-32.18,8.24-21.25C605.41,591.21,604.91,598.77,603.73,606.89Zm-107-270.45c10.3,1.9,10.42-10.56,10.31-18.29C505.69,306.59,475.43,339,496.73,336.44ZM515,855c9.34-.47,9.37-.52,6.83-8.73C518.62,828.27,483.08,849.46,515,855ZM803.46,703.16c-43.54,14.6-23.26,20.11,4.52,1ZM562.12,845.69l-5.22,4.44C571.67,860.3,582,855.8,562.12,845.69ZM404.88,892.6c-2.15,9.3,4.67,11.71,10,17.2C420.55,909.63,407.67,895.75,404.88,892.6Zm168.75,31,5.84-5C577.73,916.77,569.13,921.15,573.63,923.59Z" transform="translate(-119.12 -175.62)"/><path d="M691.23,557.05c.39,14.72-7.86,25.15-18.07,34-25,11.86-28.82-26.75-17.8-42.14C663.44,529.08,694.64,533.81,691.23,557.05Zm-37.39,15.43c5.44,42.19,51.82-15.31,22.57-28.53C660.93,539.48,656.12,562.4,653.84,572.48Z" transform="translate(-119.12 -175.62)"/></svg>