<svg id="_11_Mickey_Image" data-name="11 Mickey Image" xmlns="http://www.w3.org/2000/svg" viewBox="0 0 854.75 483.9"><path d="M207.67,782.52c24.41-11,56.24-12.71,76.14-27.85,4.05-9.89,12.21-16,22.47-19,12.84-3.77,12-3.89,14.71-16.85,15.37-70.18,95-99,153.57-121.72.33-4.76-4.74-4.39-7.87-4.78-28.15,2.74-35.82-21.49-51.63-36.6-18.09-12.71-48.61-23-69.35-10.79-6.36,8.84-30.94,10.62-25.32,24.13,19.29,36.3-41.12,70.23-71.2,61-58-39-37.11-92,32.35-95.32,35.16-16.58,71.21-29,110-12.48,10.49-2,20.3-13.27,32-3.4,4.65,2.82,8.94,10.63,15.07,9.36,11.85-9.28,28.58,5,37.05-6.64,19.53-47.46,76-38.89,71.87-57.18-4.13-59.16,112.16-63.73,106.74-2.78-41.71,62.83-32,.88,9.32,72.19,11,5.23,30.58-23.94,58.61.72,44.85,34.77-9.88,116.36-57.65,78.78C661,602.5,634.29,646.68,607.16,649c-3,.48-11.85,2.23-5.91,5.82,25.75,9.48,52.21,16.78,78.28,25.32,28.46,11.29,57.7,26.36,67.16-13.87,5.25-21.16,34.46-30.63,47.07-49.7,22.55-41.27,39.17-66.26,91.9-52.93,46.53,14.82,54.58,65.83,62.11,107.83,14.23,13.41,5.13,29.15,2.68,46.12-3.81,15.72-20.23,26.15-18.21,42.33,2.51,9.91-7.83,15.43-5.37,25.78-5.72,10.65-22.37,13.06-23.65,28.81-7,29.45-35.78,52.94-64.73,59.19-57.14,22.76-127.87-5.52-132.2-71.17.69-21,18.93-72.11,6.8-86.05-37.39-13.45-75.19-25.95-111.92-41.22-15.73-2-39.81-23.85-52-11.86-40.1,50.72-6,26.48-22.34,85.1,23-3,68.41-7.16,70.33,24.19-3,38.22,7.29,125.42-44.71,128.69-79.69,6.72-23.37-62.93-61.12-83-11.21.51-20.21-4.31-27.22-12.35-19.85-9.87-44.18,6.16-66.64-.15-32.57-5-50.9-18.06-83.84-2.37-52.84-5.88-6.11-29.12-84.89-2.57-17.38,3.12-29.86,10.27-32.38,29-18.23,30.7-56.3,30.41-82.41,10.64C81.84,821.07,116.94,728,131.88,701,205.54,676.16,222.76,715.37,207.67,782.52Zm667.64,69.74c-3-13,16.19-4.71,15.15-19.91,8.33-9.44,4.22-23.27,11.4-32.63,10.44-9.74,22-23.16,25-36.92-10.44-21.3,13.28-31.86,17.59-49.91,7.38-15.33-3.44-27.65-7.66-41.77-.08-32.4-8.82-63.44-31.71-87.16-63.86-59.26-55.16,55.43-91.66,81.14A13.37,13.37,0,0,0,809.7,667a13.53,13.53,0,0,0-4.1,4.81c-7.47,15.31-16.33,27.57-28,40.89-9.6,5.12-11.08,8.11-9.8,18.88.67,25.05-20.18,46.11-21.33,73-.92,15.5-14.82,43.08-4.76,55.2,23.22,12.51,44.24,22,71.56,14.3,12.24-2.77,26.34-6.48,38.25-7.95C857.52,857.69,865.47,854.85,875.31,852.26ZM526.49,719.45c-1.68-39.05-32.08,7-72-8.42-46.81-10.62-57.77-17.21-81.08-52.59-26.48,14.8-45.17,41.95-45.71,73.1,1.22,7.14-12.28,6.47-6.07,13.9,9.78,12.28,8,28,7,42.63,1.62,15.4,16.62-9.8,23.44-3,4.14,2.93,8.75,5.72,13.57,7.06,31.8,11.69,64.3,9.5,95.94,2.94,9.83,3.16,10.14-17.35,16.3-22.95C492.88,740,524.09,759,526.49,719.45Zm43.93-144.72c18-9.27,32.11-20.6,35.22-41.17,5-38.74-51.85-9.59-72.84-10.35-13.76,2.21-8.92,22.94-22.84,27-7.14,3.7-17.68-.74-10.81-9.3,4.16-7,11.7-13.35,14.84-20.58-1.41-13,19.71-38.62-3.27-25.73-10.84,13-14.5,34.22-32.45,43.9-8.72.82-16.75-9.81-30.25-5-17.49,1.58,2,18.84-11,25.11-15.45,10.21,7.78,24,17.81,25.36,28.73,6.83,146.18,13.76,118.66,60.9-20,7.34-60.15-2.22-67.59-23.1,3.5-13.12-15.29-34.29-10.07-10.51,1.28,7-10,10.33-2.65,16.06,29.59,25.8,87.38,38.64,117,7.69C623.63,607.16,600.72,575.78,570.42,574.73ZM204.88,735.45c0-16.13-8.74-40.47-30.36-32.78-12.59,4.09-34-6.68-42.08,13.24-11.27,34.33-31.93,81.26-18.41,115.44C190.34,882.66,199.86,790.56,204.88,735.45ZM726.15,841.94c13.06-24.64,15.38-59.53,26.35-87.24,6.82-15.81,2.08-34.24,15.74-46.29a331,331,0,0,0,44.39-49.76c23-24.35,18.63-61.3,40.25-85.86,2.49-3.34.8-8.41-2.88-7.59-32.37.64-35.09,31.78-50.83,52.45-41.31,36.08-77.75,80.73-81.07,137.75C713.29,785.54,706.79,815.23,726.15,841.94Zm-134.42-51.5c-4.38-8.76,3.18-29.91-13.29-33.58-15.46-3-39.1-10.62-50,4.83-13.55,26.36-8.13,57.81-15.51,86.14-9,35,16.38,55.76,49.84,43.49C591.78,870.7,583.21,822.38,591.73,790.44ZM510.12,795c4.83-7.63,18.73-38.08,8.5-43.17C485.37,748.33,495.51,778.3,510.12,795Zm-204.86,2.22c9.55.16,16.42-5.34,18.66-13.51C327.69,766.4,263.22,787.21,305.26,797.22Zm168.06-1.89c.05,8,7.15,16.55,13.07,17.51C501.24,816.82,476.26,763.52,473.32,795.33Zm-172.17-36c6.53-2.11,22.84.53,17.32-9.44C312,733.2,281.83,757.93,301.15,759.29Z" transform="translate(-100.83 -417.98)"/><path d="M848,811.68c-32.46-12.77-25.42,41.49,3.59,15.32C854.6,821.13,850.21,815.72,848,811.68Z" transform="translate(-100.83 -417.98)"/><path d="M822.4,807.79c14.26,0,21.27-1.22,37-3.21C863.11,795.75,815.91,794.57,822.4,807.79Z" transform="translate(-100.83 -417.98)"/><path d="M792.92,760.86c-19.44,13.67-1.34,29.17,17.48,21.49C831.83,773.76,806.66,747.79,792.92,760.86Z" transform="translate(-100.83 -417.98)"/><path d="M765.05,857.72c-17.66-13.05,12.14-39.21,21.15-21C784.5,850.19,777,856.5,765.05,857.72Z" transform="translate(-100.83 -417.98)"/><path d="M877.29,705c1,10.3-24.74,13.58-25,1.68C850.46,686.83,876.7,688.32,877.29,705Z" transform="translate(-100.83 -417.98)"/><path d="M901.07,637.05c-10.31,10.1-27.91-1.89-19.55-13.72C895.57,607,904.61,621.31,901.07,637.05Z" transform="translate(-100.83 -417.98)"/><path d="M907.1,754.27c.89,12.67-13.83,17.55-21.4,8.47C879.82,748.56,907.79,731.72,907.1,754.27Z" transform="translate(-100.83 -417.98)"/><path d="M925.3,704.61c.44,8.63-11.77,16.27-18.89,10.9C894.31,700.56,923.54,678.58,925.3,704.61Z" transform="translate(-100.83 -417.98)"/><path d="M803.41,818.05c-5.61.44-17.54-3.26-17.4,5.44C784.93,837.56,817.34,827.22,803.41,818.05Z" transform="translate(-100.83 -417.98)"/><path d="M806,837.66c-5.08-1-4.81,5.13-4,8C806.21,854.4,811.6,839.88,806,837.66Z" transform="translate(-100.83 -417.98)"/><path d="M367.76,722.69c-12.27,1.24-16.19-15.37-8.65-23.12,6.92-13.93,42.83-9.85,31.67,9.09C382.9,718.76,377,722.46,367.76,722.69Zm2.13-4.64c5.11-1.37,10.53-4.83,14.91-9.68C394.84,679.32,337.94,712.08,369.89,718.05Z" transform="translate(-100.83 -417.98)"/><path d="M432.6,751c-41.72-7.69,10.78-52.46,23.85-20.66C459.84,741.82,440.65,751.9,432.6,751Zm2.15-4c9.91,1.1,26.24-17.27,9.52-21.46C428.27,720.15,408.91,746.18,434.75,747Z" transform="translate(-100.83 -417.98)"/><path d="M179.67,712.74c9.53,32.58,6.63,88.11-12.26,115.21C175.17,791.35,180,748.88,179.67,712.74Z" transform="translate(-100.83 -417.98)"/><path d="M805.6,671.77l-.78-1.62" transform="translate(-100.83 -417.98)"/><path d="M813.52,661.87c-.1.74-.21,1.48-.31,2.23" transform="translate(-100.83 -417.98)"/></svg>