<svg id="_2_Mickey_Image" data-name="2 Mickey Image" xmlns="http://www.w3.org/2000/svg" viewBox="0 0 1151.05 1077.42"><path d="M220.86,415.89C267,275.51,405.49,368.42,410.21,306.14c5.13-25.88,20.89-50.27,50.62-43.78,64.29,25-4,97,10.07,137.3,28.32,51.48,33.16,113.16,44.06,170.19,12.81,9.1,50.36-10.73,73.15-.62,52.13.17,29.1,69.22,63.5,63.26,1.1-12.34-13.94-27.31-8.64-43.32,7.49-13.44-3.12-31.94,10.83-42.37-11.11-49,12.56-44,4.42-72.87-24.94-35.54,6.41-98.07,40-48.61,9,51.91,17.2,32.49,53.63,56.08,14.4-15.63,47.3-18.36,54.66-33.8-7.46-23.51-17.91-70.15,16.33-75,35.28-9.88,44.1,37.69,55.81,29,62.25-33.37,52.44,18.79,128.73-58.75,48.47-23.13-19.72-45.87,30.92-90.92,64.08-48.22,124.23,18.61,114.34,86.2,8.28,27.6,19.85,59.43.2,85.47-14,20.18-40.56,34.63-62.38,17.8-9.2.39-133.25,113.26-77.35,84.14,174.23-70.42,147.37,211.5-23.94,137-12.24,19-31.72,32-45.16,49.17-4.76,30.71-32,51-51.34,73.63-79.35,46.07,27.78,107.52-44,178.35-25.78,183.21,472.86,126.59,368.39,302.6-18.76,17-64.89,35.17-83.2,19.42,71.67-6.84,133.91-62.48,47.39-114-77.64-47.23-170.48-52.6-253.15-85.42-23.6-16.41-20.67-9.85-12.69,12.08,10.74,16.87,3.77,58.26,20.34,64.13,26.59,3.32,32.46,15.72,41.5,35.38,25.33.79,53.13-4.41,73.89,13.38,20.61,9.26,9.41,38.72,20.08,48.71,6.85,2.74,9.69,10.36,4.86,15.83-35.53,44.9-95.65,46-143,20-57.86-45.47-104.83-15.9-67.1-110-4.28-16.58,2.71-27.39,19.9-29.12,13.22-27.69-15.44-72.1-33.1-97.66-43-57.21-46.78-22.12-99.29-29.24-19.74-15.74-1.77-30.11-43.55-18.34-14.85,24.22-52.53,2.35-40.41,42.14-.53,78,145,40.73,114.61,97.53-27.5,12,38.05,67.49-21.78,73.75-17.45,1.11-47.59,12.84-59.08-3.12-44.47,6.71-104.09,9.06-149.87-13.19-18.38-15,12.73-51.43,13-74.07C579.86,1076.34,682.26,1164,670,1111.2c-63.22-55.26-15.58-83.13-41.7-100.29-40.59-12.1-12.55-41.26-17.64-66.93-20.94-36.66-14.47-82.37,2.6-119.22,5.19-25,54.89-46.7,50.39-61.38-44.79,6.66-89.41,14.48-134.3,20.41-12.49,7-3.13,31.15-7.05,44.13-1.18,42.18-7.09,85.45-8.24,126.72,9.79,33,51.74,62.57,32.6,98.67-13.5,17-40,22-55.83.51-30.29-19.46-27.14,120.35-185.8,82.87-9.06,35.17-10.59,101-62.61,88.08-44-18.82-18.72-84-6.34-117.81-36-57.28-56.88-126.47-67.12-195.39,4.22-97-63.43,26.92-87.81-63.19-7.34-46,43.51-61,78.69-70.24,6.46-78.94,5.9-168.46,24.52-249.84,21.26-53-72.17-86.91-55.1-146.17C158.8,318.61,204.17,376,220.86,415.89ZM286,768.17c4.58-107.74,5.84-224.56,65.88-318.17,64.94-84.74,120.71,58.87,122.79,116.1,7.54,54,17.86,108,16.43,162.75-.32,12.58-.25,25.91,16,19.71,24.21-8.52,4.83-100.31,5.73-127-16.53-93.73-13.81-212.73-99.25-273.4C299.62,301.3,265.55,505.74,248.14,583c-23.44,160.72-20.07,336.83,51.44,485.45,115,168.55,215.56-69.12,212.57-181.2-.83-21.07,21.2-139-21.23-91.05C476.47,1164.16,279.55,1091.54,286,768.17ZM921.8,603.1c18.92,19.22-11.3,59.49.9,78.39,17.67,14.58,16.37,25.23,33.75.82,40.4-41.6,2.53-116.89-51.84-120.82-4.44-10,34.79-5,40.45-21.93,50-45.07-35.19-105.08-74.84-72.77,1.7,15.29-58.53,48.82-54.81,24.62,19.28-15.93,44.3-46.75-1.64-32.2-12.44,16.27-32.07,29.72-53.62,29.82-9.59,6.13,9.93,27.31,10,38.45-12.93-15.93-20.7-47.94-47.1-55-21.8-10-21.61,33.47-47.08,20.72-19.91-5.51-29.14,55.55-1.57,46.24,19.38-3.45,50.93,20.16,44.72,32.43-8-31.36-66-45.08-66-2.06,14.52,38.37,20,117.85,79.84,87.33-12.83,16.31.49,37.82,21.21,38.66,53.58,10.53,99.63-26.14,151.42-21.41C926.89,662.66,921.23,625,921.8,603.1ZM354.21,1133.28c-165.91-116.63-143.65-529-73-702.54,12.57-35.3,39.09-64.56,62.31-91.4-53.31-2-97.62,32.05-115.44,81.6-.27,25.29,33.18,58.3,1.47,79.63-22.83,11.67-34.35,3.42-37.23,35.91-13.66,74.38-22.66,148.91-22.1,224.67-4,26.21,29.48-1.46,41.55,17,33.64,34.37-11.07,67.93-38,87.73,1.89,59.57,19.95,118.82,40.6,174.41,38.74,84.87,22.24,19.93,74,40.23C322.64,1106.47,285.85,1141.74,354.21,1133.28Zm657.56-761.57c24.78,11.67-25.88,28.29-34.39,37.37-19.28,14.71-67.24,2-66.66,35.47-19.66,5.82-43.38-51.51-68.48-62.8-38.23-16.3-47.73,56.79-19.66,67.3C883,451.19,943.5,449,979.89,505.43c18.51,22.14,46.41-26.85,65.86-35.66C1099.44,430.4,1156,365.37,1083.49,312c-23.18-16.08-44,23-63.81,32.69-7.46,7-25.55,16.3-9.44,24.6-25-7.65-42.88,23.24-63.37,36.56C937.53,431,1023.56,384.21,1011.77,371.71ZM631,963.31c-9.93-2.31-11.26-6.3-15.72,5.46-19.32,39.05,39.58,43.52,65.11,49.39,5.76,2.16,27.63-5.06,18.55-11.64-7.73-1.38-48.85-15.77-32.07-16.19,30,20.78,69.25,7,99.79,11.27-5.48,3.89-15.38.82-14.6,9.77,7.37,30.87,63-19.17,83.21-22.49,11.44-4.45,8.79-9,1.26-16.4,1.41-15.92,23.69-31.07,27.75-49.76,6.42-23.45,7.32-52.37-9.37-71.87-6.51,11.91-8.63,23.77-20.51,31.34C772.56,925.87,617.89,917.27,629,815.71,596,853.66,595.63,923.46,631,963.31Zm330.71,244.93c-54.08,3.66,43.28-18.3-26.24-35.8-14.89-4.35-.17,14.14-9.2,18.19-15.31,5-35-3.17-34.82-20.8-4.5-11.35-18.34,7.7-14.64,15.11-1.33,15.85,36.89,16.78,25.59,26.09-13.83.9-28.87-17.72-35.26,1.08-12.36,35.92,50.08,52.53,75.58,64.08C1061.26,1332,1115,1184.78,961.71,1208.24Zm-231.64.25c24.1-2.88,64.74-6.1,36.64-40.35-4.16-12.21-18.39-4.39-23.58-14,45.08-8.33,47.37-24,0-32.88-7.39,5.16,15.17,7.5,14.28,15.36-18,25.25-53.72-6.09-74.88-9.58-6.9,8.71,8,14,7.8,22.41-30.88-4.5-60.35-24.61-93.19-25.8C493.45,1192.73,683.24,1204.74,730.07,1208.49ZM422.27,923.76c-9.21-33.49-36.06-59.51-45.47-93.3-1.7-3.36-5.23-2.83-6.12,1-2,49.61-54.32,153.22-17.41,188.47C392.65,1035.46,417.42,955.2,422.27,923.76ZM525.07,747c65.64-10.12,130.64-23.48,195.08-39.56,29.3-6,4.58-13,0-30.81-125.57-26.32-89.36,24.22-171.39,26.24-7.89,3.24-21.87-13.51-23.37-4C524.86,715.18,525.11,730.21,525.07,747ZM216.19,807.73c.75-61.32-125.2-10-126.19,30C83.9,908,216.27,850,216.19,807.73ZM381.62,476.12c-29.35-67.82-57.17,62.89-68.54,89-.79,30.95,32.28,53.57,40.39,83.37C379.12,615.73,372.83,527.66,381.62,476.12Zm-144.91-1.35c-12.32-36.89-31.28-73.69-55.86-104-19.91-19-46.5,9.91-43.31,33.06C148.93,438,208.07,548,236.71,474.77Zm148.87,182.7c30-3.44,35.24-150.36,48-186-15.13-24-48.08-22.2-43.72,13.62-6.23,54.5-11.36,109.24-22.53,163C363.73,659.58,378.84,655.59,385.58,657.47ZM480.13,663C464,449.73,413.51,413.62,431.42,654.4,430.53,674.39,459.9,642.14,480.13,663ZM231,1177.2c15,113.71,93.28-50.83,55.38-86.27C244,1068.48,234.83,1149.05,231,1177.2Zm98.48-195.28c18.16-36.49,17.29-82.25,28.64-122.12-.53-8,13.5-30.65,0-30-41.15-1.14-39.13,39.24-49.27,69.4C298.86,927,318.42,956.75,329.47,981.92Zm136.86-75.61c-16.62-33.6-27.12-101.18-77.06-80.17-11.45,28.27,35.87,69.45,46.17,100.35C447.77,945.88,468.73,924.43,466.33,906.31ZM479,305.92c-9.5-68.51-64.38-20.25-65.1,24.43,1.93,18.33,31.05,25.35,39.29,43.3C470.48,371.2,472.35,324.16,479,305.92ZM464.17,935.71c-14.56,16.18-34.05-7.78-39.54,6.86-8.81,32.34-23.78,65.65-51.62,86C403.47,1077.63,466.93,974.18,464.17,935.71Zm46.39,32.52c-8.37,22.94-22.28,48.79-20.68,72.69,16.8,36.69,68.73,16.28,51.82-21.36C532.18,1001.1,524,984.94,510.56,968.23Zm-38.11-70.82c5.57-31,25.48-84.07,5.41-107.75C410.22,786.66,453.16,864.25,472.45,897.41ZM310.62,589.47c-18.29,27.79-8.51,122.16,41.64,96.41C356.57,651,325.54,619.56,310.62,589.47Zm126.23,143c-4.32-122.89-74.76-48.1-43.77-22.88,11.34,3.7,27-.28,29.82,15.63C423.51,749.15,434.22,772.83,436.85,732.52ZM479.05,689c4.95-31.32-42-36.19-44.55-7.23,5,8.77,1.51,35.64,14.69,33C460.72,708.71,480.88,705.87,479.05,689ZM683,1215.77c-32.1-13.91-80.86-7.37-113.65-30.16C511.35,1204.81,666,1224.49,683,1215.77ZM483.12,730.44c.08-4,4.14-23-3.46-21.29-19,8.37-38.92,14.71-31.77,39.61,1.88,11.8,21.4,2.09,30,4.24C487.72,751.84,481.41,737.24,483.12,730.44ZM297.4,830.7c-1.59,10.75,3,61.55,6.55,65.7C304.06,869.78,337.72,833.22,297.4,830.7Zm96.24-398c-26.55-1.54-29,24.42-7.94,22.26,7.48-12.79,25.17-.56,36.82-3.28C418,441,405.43,432.9,393.64,432.75Zm27.91,169.43c-9,9.26-16.16,39.7-12.75,53.57C437.62,671.79,419.23,620,421.55,602.18Zm-33.88,62.5c-7.87,1.33-27.22-8.37-26.67,3.88C357,715.06,378.29,695.21,387.67,664.68Zm18.64,152.45c7.42.08,18.1-9.43,18.6-16.87C417.74,782.42,380.76,814.6,406.31,817.13Zm261-198.64c-2.43-9.58-7.2-19.54-15.65-25.2C642.91,603.36,663.62,641.58,667.27,618.49ZM297.94,698c5-2.85,16.79-1.44,13.25-9.43C298.24,651,296.83,668.26,297.94,698Zm140,97.73c-6.73,1.42-14.4,23-4.43,26.07C438.76,815.32,437.39,803.93,437.94,795.72Zm323.52,418.67c.49,4.18,14.26.74,14.91-3.69C771.32,1208.76,766.39,1213.24,761.46,1214.39Zm-27.7,5.73c-6.93-4-14.32-3.56-16.71,0Z" transform="translate(-80.44 -235.55)"/><path d="M675.4,598.18c10.6-50.93,52,47.86,11.13,28.78C679.21,618.81,676.66,608.72,675.4,598.18Z" transform="translate(-80.44 -235.55)"/><path d="M748.76,562.89c-13,21.9-14.38,46.07-14.29,70.52C728.48,614.32,734.32,569.39,748.76,562.89Z" transform="translate(-80.44 -235.55)"/><path d="M750.72,659.76l11.54,9.14C756,669,751.8,665.71,750.72,659.76Z" transform="translate(-80.44 -235.55)"/><path d="M642.23,898.39c.7,11.36-11.48,32.6-24.68,22.33C587.21,897.71,640,852.14,642.23,898.39Zm-4.51-.3c-9.7-47.69-43.23,33.08-6.48,17.65C635.54,910.88,638.71,905.51,637.72,898.09Z" transform="translate(-80.44 -235.55)"/><path d="M737.88,946.11c-4,48.08-65.3,6.77-36.44-22.52C717.07,911.68,739.84,927.4,737.88,946.11Zm-40.5-1.81c1,13.64,18.78,30.75,32,16.51C749.47,932.12,701.82,902.7,697.38,944.3Z" transform="translate(-80.44 -235.55)"/></svg>
