<svg id="_3_Mickey_Image" data-name="3 Mickey Image" xmlns="http://www.w3.org/2000/svg" viewBox="0 0 872.84 546.54"><path d="M246.56,750.34c-60.51,4.32-264.1-29.56-172.68-119.79C136.56,597.19,214.21,617.4,282.44,603c108-5.25,204.94-60.41,276.37-139.53,58.43-51.12,31.75-19.65,9.41-56-2.13-6.83-10.54-7.22-12.74-14.76-15.54-12.89-47.09-12.59-49-40-2.07-14.58-42.07-17.38-27-34.89,3.31-2.9.58-5.24-2.81-5.83-10.27-2.11-22.5-.45-29.35-10-2.88-3.43-5.33-4.78-10.16-3.74-15.4,6.93-69-2.26-39.31-23.19,27.21-14.1,69.18,13.88,42.45-31a7.32,7.32,0,0,1,4.34-9.76c25.68-10.65,36.62,33.43,60.7,16.06,16.42-44.31,49.68-28.7,19.45,13-9.73,21.78,35.55,4.9,26.75,26.71-6.08,22.68-33.26.79-44,11.88-5.07,9.59,9.71,17.1,14,24.67,3.53,2,23,3.43,23.64-3.2,10.83-29.69,35.42-51.62,66.53-57.7,8.52-5.81,5.38-20.44,11.23-28.84,16.95-47.14,128.8-25.91,97.1,28.65-11.7,20.55-31.5,17.58-27.77,23.19,4.69,9.27,19.06,13.83,28.13,9.37,57.18-29.93,119.86,49.41,39.77,70.09-46.42,11.18-26.49-10.86-68.09,30.13-6.56,11.91,45.82-1.73,55.31,1.71,32.86,2.14,63,17.64,95.8,17.16,2-3.53,6-5.32,6.7-10.33,11.84-30.89,45.2-8,25.78,18.27-2.25,4.67-10.79,8.53-7.55,14.42.27,10.55,9.26,7.24,16.54,7.93,9,.89,23.94-4.69,25.21,8.44.7,4.1-1.63,6-4.86,7.64-14.92,12.34-35.16-5.12-48.4,5.43,0,8.67,9.31,15.93,13.2,23.38,6.63,10.39-5.23,21.83-15.7,16.81-14.1-4-19.24-19.3-26-30.76-15.29-13.34-26.51,18.93-44.8,11.5-20.59-3.34-10.39-22.9,2-29.95,6.64-7,1-17.87,6.09-26.26-7.71-21.95-92.51-6.35-115.87-12.86C667.34,411,588.2,483.53,610,480.48c33.48-7.2,59.28-37.72,95.95-31.19,9.25,0,11.69,8.91,15.82,15.24,8.62,4.64,12.25,13.21,17.15,20.87,20.5,27.57-3.67,52.13-10.28,78.18.75,20.9-10.45,46.07,8.66,61.59,44.06,44.86,113.24,39.48,164.2,73.51,20.47,10.81,35.3,51,3.87,56.13-13.58-1-32.58,7.42-43.44-1.78,17.3-6.56,49.06,5.07,55.63-18.52-2.36-32.41-42.24-38.71-66.46-50.38C798,666.88,733.35,653.45,708.68,599.29c-32.35-6.91-37.36,63.47-2,58.14,8.82-.95,23.91,9.48,16.58,18.13-3.34,2.65-2.34,4.79,1.09,6.26,15.17,5.89,19.64,24.25,8.16,35.49-27.2,20.44-61.64,43.59-94.7,22.41C600,722,618.23,717.26,604.4,702.21c-26.1-10.47-84.75-5.73-88.48-40.67,5.64-52.47,31.56-34.44,67.42-26.95.3-10.75-17.2-19.41-8.46-29,4.18-7,28-19.08,17.06-26.07-32.55-22.24,3-17.94-2.12-36.65-2.75-3.11-6.05-1.44-8.32.88-36.58,35.54-65,77.79-95.51,118.32C432.89,735.27,330.87,752.23,246.56,750.34Zm-12.7-38.77C361,708.08,440,674.34,510.89,566.79c14.21-19.61-23.93,12.06-29,14.55-55.74,39.51-121.75,57.32-188.57,66.9-60.26,5.13-122.6,1.65-181.61,16.55C72.15,699,218,710.55,233.86,711.57ZM600.51,383c87.33,4.13,47,63.4-16.79,27.74,6.78,15.07,30.35,11.08,44,16.76,56.52-4.21,54.78-61.9-2.49-63.7,11.61-15.92,35.51-24.48,39.79-46.95,11.56-42.81-43-24.13-65.3-18.52.39-7,17.56-23.34,1.79-21.78-31.59,3.72-33.43,54.81-55.82,60.86-5-1.3-16.16-7.58-16.73,1.58.07,8-1.05,9.16-9.17,10.82-5.1,1.05-7.21,4.2-4.51,8.52C532.11,388.16,571.24,383.13,600.51,383Zm94.87,210.1c12.13-.7,26.55-7.68,23.35-23.14-3.21,1.3-11,5.48-7.91-1.15,21.07-26.46,43.68-71.95,9.22-96.55-35.29,61.47-101.22,32.8-81.6,56.49-36.48-15.5-3.41,8.85-29.25,14.88-9.53,10,22.9,17,25.84,26.24-13.7-.17-28.32-24.12-40.36-13.58-5.14,5.16-8.82,12-.87,16.41,34,18.52,43.37,24.57,65.4-10.65,2.27,5.27-1.41,9.41-3.26,14.12C649.82,596.17,683.78,588.73,695.38,593.06Zm19,95.64c-5.79.67-8-1.08-12.63-3.08,5.18-7.57,21.79-13.64,5.1-19.46-2,6.43-6.21,11.82-13.4,11.89-9.43,3.48-15-6.33-24.54-5.74-4.49,1.05-5.3,5.92-.7,8,26.28,8.23,5,8.39-7.61,2.87-18.26-4.26-44.56,1.65-41.36,25.28-.27,20.45,26.39,22.62,40.32,31C678.41,747.68,768,698,714.43,688.7Zm-172-56.56c-15.85,6.83-27.53,40-4.6,46.07,16.74,1.07,67.52,25.36,76.34,13.16,4-15,22.36-10.13,26.82-21.15-4.82-10.3-15.22,1.46-22.6-3.07,9.67-12.32-12.63-9.93-20.36-12.06-10.75-.14-14.51-12.66-25.2-14.25C562.92,638.12,553.06,635.2,542.42,632.14Zm76.11-40.7c-6.42,5.33-25,15.32-16.94,25.14,8.6,7.92,11.15,23.62,24.09,24.85,9.87.86,13.77,5.14,15.78,14.83,2.07,10.3,9.69,16,18.87,8.92,13.06-2.52-4.71-14.81-5.52-21.84-5.89-24.41,38.93-42.51-4-52.09C634.26,592.67,642.31,598.38,618.53,591.44Zm94.85-120.51c1-39.47-73.84-.78-81.47,13.95,12.12,3.84,25.51,5.07,35.83,13.81,3.48,3.27,10,5.88,14.28,4.38C694.21,495.36,713.63,487.78,713.38,470.93Zm-104,55.63c-5.39,6-4.24,8.07,1.38,10.87C616.81,534.87,614.43,531.08,609.41,526.56Z" transform="translate(-50.63 -210.84)"/><path d="M599.43,314.53c.59,10.89-15.85,32.14-26.95,32.47C565.45,337.88,601.75,290.55,599.43,314.53Z" transform="translate(-50.63 -210.84)"/><path d="M663.76,528.66c20-1.17,22.09,29,.15,27.59C646,555.36,641.43,527.36,663.76,528.66Zm3.76,23.56c13.84-.54,8.69-18.7-2.91-17.84C647.08,534.47,654.23,552,667.52,552.22Z" transform="translate(-50.63 -210.84)"/></svg>