<svg id="_4_Mickey_Image" data-name="4 Mickey Image" xmlns="http://www.w3.org/2000/svg" viewBox="0 0 574.46 560.82"><path d="M291.55,371.91c6.15-1.32,19.67,4,20-5.73,1-31.1,18.38-63,46.43-77.5,3.93-1.94,4.08-4.55,2.26-8.19-20-32.44,22.25-63.82,52.5-63.2,35.44-8.29,70.68,29,42.38,59.7-12.75,12.58-9.83,13.57,2.37,24.21,5.19,4.32,19.76,9.21,24.38,2,16.56-21.05,51.65-16.78,68.38,1.79,32.49,39.38-19.61,86.17-61.2,70.37-1.15-.14-3.36,1.48-3.7,2.68-2.95,10.4-8.74,19-16.26,26.52-6.87,12.33,4.64,26.2-10.12,45.58-2.95,6.41-6.05,18.16-.38,22.66,14.39,4.46,28.29,6.22,42.31.68,43.6-15.45,87.88,19.68,81.42,65.79-4.85,12.64-11.53,24.72.44,36,46.54,44.29,121.76,58,154.49,117.78,8.85,20.67,11.42,52.31-5.25,69.49-8.87,5.74-21.43,18.84-32.29,12.79,33.07-10.26,46.51-49.3,29.54-79.26-23.78-41.87-71.79-64.54-115.06-81.27-21.85-6.81-35.34-27.4-54.81-37.44-16.39,9-10.18,12.48-11.48,28.17.44,22.35-26,4.58-29,21.58-4.51,16.67-11.16,35,.51,50.24,10.73,1,31.59-.78,29.81,16.38,1.64,11.89,16.1,18.49,17.28,32,5.82,15.9-16.92,18-26.89,23.66-15.62,6.07-30.54,14.08-47.62,16-33.6,4.95-44.69-11.28-59.47-36.31-23.41-6.79-79.82-12.28-82.54-41.25,2.94-14.34-.3-44.38,22.31-38.88,13.2,1.89,31.57,17,41.63,2.66-1.23-16.28,6.19-30.42,10.89-45.23,4.7-9.78-3-9.16-10-13.18-23-10.67,20.38-29.21-1.05-42.31-24.13,46.27-73.05,62.88-116.19,30.14-8.22-11.47-26.09,16.28-48.51,14.75-29.79,3.68-63.62-11.08-72.81-41.55-28.24-102.36,44-81.92,51.56-113.71-1.3-21.47-16-54.73,14.57-61.08C258.37,375,274.65,371.1,291.55,371.91Zm98,68.42c5.45-1,12.14.65,16.82-2.41-10.94-2.31-23.81,2.61-33.5-3.78.26-10.17,60-19.51,51.9-3,.07,10.25,28.13-7.84,31-13,16.1-20.16-29.88-40.29-45.56-28.53-2.92,1.42-5.11-.19-4.08-3.53,22-27.56,24.17-117.49-29.74-82.32-9,6.55-15.18,16.84-25.59,21.25-2.89-32.64-23.29,7-26.28,19,.25,10.86,6.41,21.94,3.85,32.9,1.9,5-.68,5-3.9,5.37-57.87,7.86-10.29,14-19.81,36.73-1.61,4-1.17,7.18,3.21,8.91A321.2,321.2,0,0,0,389.51,440.33ZM521.67,613.51c2.7-2.61,15.83-.15,18-5,4.61-10.39-8.74-18.81-.25-26,27.56-18.29,52.31-53.43,28.45-84-4.45-11.47-17.62,17.58-34.39,21.39-30.17,12.18-64.72,13-96,5-30-4.23-14.82,31-3,42.79-10-2.35-26.28,16.35-13.73,21.59,11.1.88,48.79,21.49,50.23,3.63-1-6-10.79-4.86-13.26-8.87,11.19,3.7,27.87-10.39,19.4,10.27C470.58,613.82,509.91,608.54,521.67,613.51ZM482.2,759c10.76-.77,21.21-1.58,31.5-6.29,11.19-8.93,51-8.35,46.67-26.43C547.66,691,541.86,711,517.14,703.48c-6.13-1.9-11.51-3.58-14.56-9.9-8.39-10.3-26.1,2.41,2.84,17.92C426.82,688.48,430.86,755.71,482.2,759ZM357.43,685.22c2.31,28.49,51.09,26.92,72,37.2,11.79,4.47,11-16.88,35.74-20,11.64-5.36-4.13-20-13.25-15.9-1.91.63-5.12.88-6.11-1.06.77-5,11.14-5.84,10-12.1-.93-1.77-5.75-6.35-7.41-2.47-2.21,13.22-20.16,4.72-25.2-2.45-3-4.76-8.24-8.11-13.91-6.37-8.64,7.79,6.8,10.47,9.54,15.62-8.19,1.91-15.72-3.74-21.45-9.42-6.88-7.35-16.27-10.77-26-12.65C357.79,654,361.54,676.45,357.43,685.22Zm77.81-45c3.23,8.8,3.47,17.64,15.44,21,7.76,3,13.95,6.91,14,16.56,2.81,7.11,8.69,14.18,13.47,20.36,4.64-7.47,2.2-15.29,13.63-14.23,4.15-.08,4.95-1.38,3.39-5-9.1-17.81-4.09-37.18,1-55.44,2.42-11.43-17.57-7.26-23.34-13.48C444.57,594.23,445.72,621.54,435.24,640.27Zm94.82-164.14c-66.25,8.36-25,4.29-18.16,33.83.8,5.09,2.39,11.88,8.86,9.47C551.1,513.07,575.7,482.16,530.06,476.13ZM271.17,448.49c7.39-4.89,35-21.11,16.7-27.87-5.52-.29-31.91-15.27-30.26-5.76C261.08,427.85,251.45,448.3,271.17,448.49Zm-27.28,76.9c4.68-1.17,12.58-3.5,17.25-6.92-7.23-1.52-24.19-14.23-29.31-8.18C229.43,515.45,236.75,525.83,243.89,525.39ZM352.2,541.21c4.69-4,6.74-9.53,9.6-14.82-9.16-4.2-10.89,7-15.15,12.5ZM528.09,691.78c.94,3,1.66,5.21,2.37,7.46C549.21,692.84,531.4,680,528.09,691.78ZM321.56,473.85l-4.72,3c4.16,3.84,10.12,6.22,15.8,5.49C331.87,476.84,325.88,476.71,321.56,473.85Z" transform="translate(-169.74 -216.11)"/><path d="M361.14,376.62c-.31,10.54-14.3,13.14-15.21,2.08,1.21-6.63-1.08-18.29,6-21.61C359.38,359.26,358.3,370.52,361.14,376.62Z" transform="translate(-169.74 -216.11)"/><path d="M506.06,559c-9,11.71-30.7-2.49-22.52-15.21,8.3-9.91,36.3,2.49,22.41,15.32,2.08-11-11.67-18.12-18.2-11.21C484.36,559.41,497.4,562.07,506.06,559Z" transform="translate(-169.74 -216.11)"/><path d="M437.33,549c-7.08-.11-10.76-4.07-10.62-11.41C431.58,514.48,464.63,547.94,437.33,549Zm1.23-2.57c7.14-4,4.94-10-2-10.69C430,538.88,435.44,542.21,438.56,546.45Z" transform="translate(-169.74 -216.11)"/></svg>