<svg id="_7_Miceky_Image" data-name="7 Miceky Image" xmlns="http://www.w3.org/2000/svg" viewBox="0 0 779.51 527.86"><path d="M805.64,768.05c-9.65,0-19.38.79-28.93-.22-10.51-1.1-20.93-3.49-31.24-6-12.75-3.06-25.43-6.47-38-10.34-5.81-1.8-11.2-5-16.76-7.62-7.11-3.36-7.84-10.74-10.41-16.89a105.12,105.12,0,0,1-4-12.29c-.55-2-.82-2.87-2.5-.77-3.09,3.86-6.17,7.28-5.84,13.13.39,6.92-3.18,12.78-8.67,17.2a50.22,50.22,0,0,1-38.17,11.25c-13.89-1.46-28.2-1.21-41.62-4.55-18.18-4.51-36.38-2.13-54.51-3.6-9.64-.78-17.79-5.25-24.37-12.25-3.25-3.46-2.64-12.42.11-17,1.35-2.28,2.59-5.11,2.54-7.66-.28-14.86,7.55-26.53,22.94-29.14,1.5-.25,3.77-3.2,3.64-4.71-.88-10,9.71-18,18.77-18.14,9.57-.19,12.75-3.27,15.17-12.67a2.62,2.62,0,0,1,.13-.48c5.72-13.07,3.53-24.09-8.07-33.06-2.25-1.74-3.75-4.69-5.06-7.35-2.17-4.42-5.49-4.82-9.54-3.39-5.63,2-11.24,4.06-16.87,6a48,48,0,0,1-5.72,1.79c-7.92,1.74-13-1.12-15-9-.87-3.37-2.29-4.77-5.72-4.61a246.35,246.35,0,0,1-61.52-5.07c-1.37-.29-3.43,1.06-4.65,2.2s-1.76,3.23-2.94,4.59c-5.53,6.35-10.24,8.89-17.76,5.41-7.68-3.55-15.58-6.64-23.38-10-4.15-1.76-7.4-1.72-11.09,2-5.56,5.66-12.07,10.41-18.32,15.38-2.73,2.18-3.62,4.76-2.48,7.9,2.95,8.1,5.53,16.42,9.41,24.08,1.24,2.45,6,3.34,9.27,4.47,2.46.84,5.31.55,7.79,1.37,5.79,1.93,9.94,5.65,10,12.22,0,5.17,2.38,7.92,6.72,10.79,6.56,4.32,12.38,9.89,18,15.45,1.93,1.91,3.45,5.51,3.15,8.11-.65,5.78,2.8,7.68,6.81,9.88,6.62,3.61,8.13,6.29,6.75,11.68-.43,1.67-1.27,3.86-2.59,4.59-6.56,3.64-13,8.49-20.13,9.91-14.93,3-30.17,4.25-44.32,10.71-3.28,1.5-7.49,1.26-11.27,1.3-13.46.12-27.12,1.44-40.33-.38-13.84-1.92-27.45-6.34-40.75-10.88-5.88-2-10.95-6.74-16-10.72-6.59-5.2-6.13-12.42-3.4-19.12,3-7.28.55-14-.59-20.89-.16-1-2.15-1.84-3.46-2.36-9.53-3.81-19.66-6.54-28.53-11.52-11.33-6.37-19.36-16.44-25.18-28.28-5.4-11-4.7-21.47,1.25-31.85a75.07,75.07,0,0,1,20.83-23.17c22.69-16.8,47.71-28.7,74.64-37.11,22.8-7.12,45.26-15.37,67.82-23.24,2.8-1,5.26-2.86,8-4.07,7.69-3.4,9.89-10,10.78-17.6,2.83-24,13.91-43.5,33.5-57.62,5.81-4.18,13.07-6.36,19.66-9.45,1.19-.56,2.64-.83,3.52-1.69A146.06,146.06,0,0,1,484,402.46c7.93-3.24,16.28-5.52,24.54-7.9,4.64-1.35,7.63-4,8.59-8.66,2.71-13.24,6.88-25.89,13.79-37.63,3.32-5.64,2-7.9-3.56-11.89-9.2-6.56-14.65-15.75-16.79-26.76-3.22-16.5,2.16-30.41,12.52-43.24s24.37-19.24,39.78-23.82c16.92-5,31.46-.39,45.14,9.24A26.46,26.46,0,0,1,619,269.08c1.76,9.55,2.73,19.15-3.85,27.72-2.48,3.24-.69,4.32,2.83,5,9.45,1.79,18.9,3.66,28.15,6.23,7.69,2.13,8.66,1.48,10.44-6.36,4.38-19.34,15.6-33.2,37.42-36.48,13.45-2,25.65.39,36.67,7.71,11.76,7.83,20.42,17.88,20.12,33.37-.21,10.79.82,21.65-4.51,31.69-6.46,12.16-14.36,23.1-25.93,31-.41.28-.84.73-1.28.75-7.58.26-7,5.7-7.3,10.95a44.6,44.6,0,0,0,2,16.5c2.54,8.22,2.68,17.09-1.2,25.34-2.83,6-5.7,12-8.95,17.82-1.66,3-1.46,4.43,1.53,6.32,12.32,7.78,24.27,16.17,36.75,23.67,9,5.38,18.65,9.52,27.83,14.56,12.11,6.65,25.53,11.45,33.47,24.17,1.41,2.26,5.41,3.79,8.37,4.06,17.38,1.61,34.8,2.75,52.21,4a56.09,56.09,0,0,0,6.48.27c18-.7,35.16,3.36,52.31,8.62,8.7,2.67,15.16,7.63,21.55,13.31a9,9,0,0,1,2.08,3.32c.25.63-.16,1.53-.27,2.31-.71-.28-1.7-.35-2.1-.87-11-14.34-27.48-17.39-43.42-19-31.09-3.08-62.36-4.4-93.59-5.81-7.48-.34-15.06,1.89-22.61,2.87-2.62.34-5.55,1.32-7.85.54-12.32-4.14-24.79-.9-37.16-1.13a138.39,138.39,0,0,0-21.88,1.62c-6.38.9-12.62,2.73-18.92,4.16-3.86.88-7.67,2.06-11.57,2.64a79.53,79.53,0,0,0-30,10.28c-7.14,4.32-6.91,13,.35,17.29,2.86,1.69,5.74,3.7,8.88,4.43,2.8.65,6.54.7,8.87-.67,13.23-7.78,27.46-9.82,42.3-8,9.53,1.19,18.9,3.56,28.38,5.11,3.07.5,6.3.07,9.45.1,1.83,0,3.86-.4,5.43.26,2.44,1,4.56,2.76,6.81,4.2-2.18.69-4.36,1.39-6.54,2.06-1.52.47-3,.9-4.58,1.34.57,1.34,1.11,2.69,1.7,4,3.1,6.87,6.05,13.81,9.43,20.54.79,1.57,2.95,3.34,4.6,3.46,13.91,1,27.93,3,41.76,2.15,21.37-1.29,42.65-4.31,63.9-7.07,13-1.69,26-4,38.82-6.57,6.29-1.26,13.13-2.63,18.25-6.11,5.85-4,11-9.66,13.1-17.14.37-1.31,1.76-2.34,2.67-3.5.4,1.35,1.12,2.69,1.13,4.05.12,15.13-3.28,29.64-8,43.9a28.73,28.73,0,0,0-.76,2.9c-3.83,16.91-3.72,16.77,10.11,26.79,10.67,7.73,17.72,18.34,19.64,31.27,1.06,7.21-.33,14.91-1.45,22.25-.46,3-3,5.72-4.89,8.41-.67,1-2,1.45-3.08,2.16-.69-1.08-1.93-2.14-2-3.24-.19-5.31-.61-10.7,0-15.94,2-16.37-6.92-27.87-16.86-38.82-3.82-4.2-6.05-3.46-7.39,2-2.7,11-4.74,22.08-7.5,33s-6.08,21.76-9.13,32.63a31.14,31.14,0,0,0-1.19,5.34c-.3,3.11.78,5.1,4.42,5,10.79-.21,20.3-3.15,26.78-12.48,2.49-3.6,6.06-3.81,9.75-3.36.85.1,2.31,1.92,2.13,2.56-.88,3.07-1.55,6.6-3.53,8.88-9.31,10.69-22.15,13.5-35.48,14.5-8.52.64-8.83.25-11.53,8.53-2.28,7-8.22,9.45-13.86,12-9.55,4.27-19.28,8.2-29.14,11.64-15.53,5.42-31.76,6.89-48.08,7.56-5,.2-10,.44-15,.66Zm-18.85-6.4c27.83-.24,52.82-1.89,77.35-8,13.09-3.24,26.37-6.15,35.9-16.84,1.72-1.93,2.65-4.58,3.94-6.89-2.35-1.29-4.55-3.07-7.06-3.77-16.77-4.66-33.95-8.11-50.33-13.83-27.94-9.75-52.85-25.5-77.05-42.3-3.9-2.71-7.81-4-12.55-1.73a22.53,22.53,0,0,1-7.72,1.75,41,41,0,0,1-27-6.58c-10.14-6.81-20.26-14-29-22.46-9.42-9.13-17.27-19.88-25.7-30-5.3-6.37-10.2-13-9.92-21.93a11.56,11.56,0,0,0-.47-3.94c-.25-.74-1.23-1.22-1.88-1.82-.45.63-1.28,1.25-1.3,1.89a37.8,37.8,0,0,0,.28,6.47c1.5,10.5,2.83,21,4.71,31.49,2,11.11,3.77,22.35,7,33.13,7.52,25.15,15.92,50,23.79,75.09a14.88,14.88,0,0,0,9.21,9.76c8.91,3.51,18.15,6.22,26.95,10C746.29,759.85,767.85,760.75,786.79,761.65Zm5-158c0-.48,0-1,0-1.43-6.82,0-13.64,0-20.45,0-5.21,0-11.46,4-13,9.09-1.33,4.37,2.92,6.14,5.16,8.76,1.4,1.64,3,3.09,4.54,4.62,4.68,4.68,8.45,10.13,8.55,16.79a30.68,30.68,0,0,1-3,13.18c-3,6.24-3.47,7,1.91,11a130.84,130.84,0,0,0,13.8,8.84c14.26,8.11,28.3,16.72,43,23.86A241.71,241.71,0,0,0,869,712.24c10.44,3.08,21.45,4.26,32.23,6.2,4.37.78,7-1.34,8.08-5.5.94-3.7,1.67-7.45,2.62-11.15,3.49-13.67,7.09-27.31,10.56-41,4.24-16.74,8.37-33.5,12.57-50.25,2.05-8.21,4.29-16.37,6.14-24.61.9-4-.9-5.43-4.55-4.52-16.89,4.2-33.68,8.9-50.73,12.32-15.46,3.09-31.15,5.3-46.85,6.92S807.54,602.68,791.77,603.62Zm-288-86.76c-21.8-.28-40.16-3.84-55.33-17.34-13.08-11.64-25.56-23.61-24.35-43.35,0-.71-2.33-2.43-2.81-2.18-3.76,1.91-8,3.57-10.79,6.51-4.05,4.19-7.2,9.3-10.44,14.21-8.15,12.3-10.57,26.08-8.85,40.44,1,8.15,3.21,16.19,5.34,24.15,1.05,4-1,4.12-3.49,3.54a8.49,8.49,0,0,1-4-2.74c-2-2.29-3.66-2.19-5.78-.07-5.53,5.52-11.32,10.77-16.79,16.34-6.34,6.45-6,9.22,1,14.77A18.59,18.59,0,0,0,370,572.8q20.46,10.79,40.95,21.52c3.81,2,7.48,1.61,10.6-1.3a26.81,26.81,0,0,0,5.39-6.38c1.72-3.14,4-4.27,7.32-3.73,2,.32,3.94.61,5.9,1C457,587.15,473.78,590.29,491,590c3.58-.07,6.93-.21,8.28-4.7.38-1.22,2.78-2.46,4.28-2.5,1.05,0,2.55,1.79,3.16,3.1,1.74,3.75,3,7.71,4.68,11.49,1.39,3.13,4,4.64,7.31,3.41,7.76-2.84,15.46-5.89,23.15-8.91,9.19-3.6,18.47-7,27.47-11a19.49,19.49,0,0,0,8.51-7c.69-1.15-2.53-5.24-4.6-7.38-4.33-4.48-7.07-4.4-11.9-.46-1.28,1-2.37,2.54-3.83,3.14-1.9.79-4.08.9-6.15,1.31.47-1.85.5-4,1.47-5.48,5-7.93,10.43-15.64,15.5-23.56,2.31-3.6,1.25-7-1.63-9.94-3-3.09-6-6.26-9.12-9.23-7-6.6-14.55-10.77-25-8.72C522.4,515.5,511.9,516,503.73,516.86Zm-301,105.41c.12,12.47,4.58,20.05,10.4,26.8,10.53,12.2,25.41,16.4,40.06,20.86,3,.91,4.3,0,4.7-3.5.74-6.55,4.49-11.39,11.19-12.34a190.83,190.83,0,0,1,22.69-1.49c12.63-.26,25.64,3.76,37.45-4.63,2.37-1.68,3.87-2.72,3.41-5.52a20.6,20.6,0,0,0-1.25-4.79c-4.42-10.37-4.88-21.33-4.66-32.33a12.74,12.74,0,0,1,2.09-6.44c5.79-8.78,14-15.11,22.78-20.52,3-1.85,3.58-3.52,1.91-6.37a43.06,43.06,0,0,1-2.3-4.42c-2.13-4.83-2.2-9.16,2.35-13a91.69,91.69,0,0,0,8.66-9,22.92,22.92,0,0,0,2.29-3.6c-1.57-.12-3.2-.59-4.7-.31-12.42,2.25-24.92,4.19-37.18,7.11-15.48,3.67-31,7.4-46.07,12.51-21.32,7.25-39.87,19.77-57,34.12C210.34,603.15,203.59,612.73,202.76,622.27ZM518.49,411.56c0,11.69.87,12.52,12.31,11.36a2.64,2.64,0,0,1,1-.09c1.74.57,3.47,1.2,5.2,1.8-.89,1.71-1.83,3.4-2.67,5.14-1.09,2.24-3.07,4.64-2.81,6.74.18,1.47,3.33,3.28,5.4,3.69,9.05,1.78,17.42,4.58,22.94,12.6,4,5.83,7.5,12.1,11.93,17.59C585.22,487.06,603.62,494,624.31,496c1.89.18,3.91-1,5.88-1.59-1.72-1-3.39-2.07-5.15-3-7.18-3.71-14.92-6.63-21.44-11.27s-4.9-12.28,2.77-14.92c9.74-3.35,19.3-2.18,28.59,2,7.88,3.52,15.77,7,23.61,10.59,3.28,1.5,4.75.68,5.47-3,2.91-14.78-4.24-22.29-16.49-23.93-17.11-2.3-34.78-4.34-51.55,3.4-1.35.62-3.58-.66-5.4-1.06,1-1.55,1.57-3.9,2.94-4.49a74.9,74.9,0,0,1,11.84-3.68c10.26-2.55,20.68-2.76,31.18-2.09,1.47.1,3.82-.92,4.41-2.1,1.4-2.76,2-5.92,2.88-9,1-3.5-.67-4.91-4-6-3.82-1.2-8.2-2.66-10.75-5.46-3.75-4.11-5.52-2.89-8,1.42a95.72,95.72,0,0,1-8.85,12.53c-2.77,3.39-9.59,4.48-12.74,2.28-4.35-3-3.21-7.21-1.81-11.25,1.14-3.29,2-6.86,3.87-9.69,3.83-5.74,7.31-12.48,12.73-16.17,5.6-3.8,7.72-7.43,6.8-13.63-.31-2.13-.2-4.32-.46-6.46-1.7-14.18-1.35-28.09,4.35-41.54,2.16-5.11-.32-8.74-6-9.41-14.82-1.76-25.32,6.76-34.65,16.13-5.84,5.87-9.84,13.66-14.2,20.87a45.44,45.44,0,0,0-4.88,11.84c-1.75,6.66-2.77,13.52-4.28,20.24a29.3,29.3,0,0,1-2.28,5.23,34.13,34.13,0,0,1-4.31-3.7A22.14,22.14,0,0,0,530,392.58C522.28,395.3,518.51,401.52,518.49,411.56ZM348.72,738.27l.15-1.61c12.38,1,24.26-.1,34.87-7.4a18.37,18.37,0,0,1,6.46-2.49c8.41-1.83,17-3,25.23-5.37,2.57-.72,4.38-4.18,6.54-6.38a58.89,58.89,0,0,0-7.44-3.84c-1.23-.45-2.95.18-4.37.58-11.47,3.21-22.81,7-34.43,9.54-6.34,1.37-13.15.66-19.75.65-1,0-2-1.25-3-1.93a14.37,14.37,0,0,1,2.37-2.85,6.57,6.57,0,0,1,2.87-.7c5.74-.82,11.65-1,17.21-2.53,9.91-2.65,19.76-5.68,29.36-9.3,5.65-2.13,6.91-5.88,4.09-10.22a44.89,44.89,0,0,0-22-17.94c-5.44-2-11.75-1.48-15.78-6.88-.55-.74-2.13-.79-3.26-1-10.71-1.75-21.2-4.1-30.24-10.63-3.09-2.23-5.62-.93-6.74,2.15-1.06,2.91-.29,5.49,3.41,6.45a57.36,57.36,0,0,1,9.34,3.33c1.3.59,2.17,2.1,3.24,3.19-1.43.88-2.9,2.58-4.28,2.51-8-.42-15.79-1.1-21.59-8a12.68,12.68,0,0,0-8.18-4.11c-11.28-.5-22.62-.7-33.9-.18-9.22.41-11.84,2.62-13.35,11.7-2.3,13.87-.05,26.9,13.23,34.1,7.69,4.17,15.85,5.81,24.25,6.61,11.75,1.1,23.56,1.55,35.32,2.58,2.31.2,4.49,1.74,6.73,2.67-2,1.24-3.94,2.56-6,3.69a5,5,0,0,1-2.45.4c-15.25-.5-30.5-1-45.75-1.54a18.92,18.92,0,0,0-4.39.2c-.8.16-1.45,1-2.16,1.58a8.7,8.7,0,0,0,2,1.25c7.32,2.11,14.56,4.78,22,6.08C321.76,735,335.27,736.44,348.72,738.27ZM643.82,585.4l2-1c-1.53-2.23-2.61-5.06-4.67-6.58A171.9,171.9,0,0,0,624.5,567c-12.37-7.16-25.07-13.76-37.31-21.13-8.36-5-8.17-5.44-12.3,3.28-1.43,3-1.73,5.82,1.34,8.49a103.53,103.53,0,0,1,9.68,10c4.18,4.76,3.67,8.93-1.47,12.61-2.56,1.83-5.58,3.07-7.92,5.12-1,.87-1.61,3.53-1,4.65,4.93,9.42,9.89,18.85,15.44,27.9,4.33,7.06,5,14.41,3.22,22-1.73,7.42-4.09,14.7-6.34,22-.7,2.28-.84,3.71,1.45,5.44,3.22,2.42,7.12,5.13,8.47,8.59,2.4,6.17,5.92,6.41,11,4.49a23,23,0,0,1,2.88-.78c16.12-3.75,32.17-5,48.06,1.12,1.63.62,3.3,1.13,5,1.7,0-1.8.38-3.68,0-5.37-4.24-16.92-8.94-33.73-12.85-50.72C648.64,612.79,646.43,599.05,643.82,585.4ZM534.92,690c-14.79-1.52-22.12,10.92-21.68,21.08.16,3.86,1.14,8.69,3.64,11.21,4,4,9.52,6.38,14.38,9.48,1.24.79,2.9,1.46,3.5,2.63,2.48,4.85,6.68,6.16,11.61,6.25s9.64.11,14.46.23a107.3,107.3,0,0,1,10.92.47c13.47,1.69,26.91,3.6,40.38,5.31,1.17.15,3.26-.26,3.56-1,2.18-5.25,7.14-4.83,11.33-5.85s8.55-1.29,12.51-2.76c13.58-5,20.4-16.36,25.59-28.9a13.29,13.29,0,0,0-1.51-13.7c-4.32-5.83-10.47-9.56-17.15-10.17-16.59-1.53-32.77.39-47.49,9.42a23.63,23.63,0,0,1-10.24,3c-3.73.29-7.6-.46-11.33-1.19-1.8-.35-3.42-1.7-5.12-2.6,1.45-1.07,2.82-2.26,4.36-3.19,3.79-2.26,8-4,11.3-6.8,1.29-1.12.77-4.59.6-7,0-.5-2.64-1.53-3.26-1.12a10.11,10.11,0,0,0-3.88,4.26c-1.16,3-1.88,5.72-5.45,7.1-8.83,3.41-20.76-1.73-25.94-11.31-.93-1.72-3-2.83-4.55-4.22-1.8,2.18-4.44,4.1-5.2,6.59-1.1,3.56,1.61,5.79,4.91,7,4.06,1.43,8.17,2.74,12.17,4.32.89.35,1.41,1.64,2.09,2.5a12.1,12.1,0,0,1-2.94,2.15,7.24,7.24,0,0,1-3.46,0C546.53,692.07,540,690.9,534.92,690ZM742.78,514.54c.08.4.16.8.25,1.19,3.44-.46,6.89-.9,10.33-1.4,1.27-.18,2.52-.47,3.78-.72a20.85,20.85,0,0,0-2.36-3.48c-18.62-18.24-41.39-30.08-64.79-40.5-10.47-4.66-14.53-1-17.52,7.5a30.53,30.53,0,0,1-10.69,14.63c-6.46,4.86-13.66,7.17-21.27,9.16-11.12,2.9-21.87,1.85-32.89-.77a29.82,29.82,0,0,0-14.87.76c-5.59,1.69-5.59,5.41-.92,8.94,8.49,6.41,16.9,12.92,25.38,19.34,6.62,5,13.19,10.11,20,14.79,1.53,1,4.65,1.38,6.15.51,5.54-3.2,10.27-8.29,16.11-10.37,11.9-4.24,24.27-7.28,36.57-10.24,7.57-1.83,15.44-2.38,23.09-3.9C727.09,518.42,734.91,516.38,742.78,514.54ZM709.47,408.62c-1-2.32-1.43-5.75-3.17-6.64s-4.9.54-7,1.71c-8.27,4.56-16.28,9.58-24.57,14.09-4.13,2.25-7.1,4.87-8.72,9.56a47.42,47.42,0,0,1-6.83,12.93c-3.34,4.41-3.29,6.76,1.5,9.9a54.59,54.59,0,0,1,8.19,6.39c5.16,5,6.69,5.22,12.18.81,1-.83,1.91-1.84,2.87-2.76,10.36-9.86,15.93-22.72,21.94-35.28C707.38,416.1,708.18,412.51,709.47,408.62ZM530.4,446c-.23.57-1,1.64-.78,2.17a9.21,9.21,0,0,0,2.76,3.36q9.12,6.42,18.46,12.52c.89.59,2.39.24,3.61.32a11.65,11.65,0,0,0-.15-3.25C550.53,450.09,540.06,449.27,530.4,446Z" transform="translate(-193.44 -240.51)"/><path d="M801.17,556.19c6.75.62,13.49,1.32,20.24,1.8a22.6,22.6,0,0,0,5.38-.68c5.51-1,10.75-1.06,15.86,2.08,2.26,1.4,5.37,1.37,8,2.29,1.07.37,1.86,1.55,2.77,2.37-1.06.58-2.19,1.75-3.16,1.62-4.17-.52-8.28-1.47-12.43-2.18a76,76,0,0,0-9.68-1.4c-5.36-.21-10.74,0-16.11,0-6.44,0-12.87-.11-19.31-.14-1.16,0-2.44.45-3.45.09a40.63,40.63,0,0,1-5.25-2.69c1.72-.81,3.39-2.17,5.17-2.33,4-.36,8-.11,11.94-.11Z" transform="translate(-193.44 -240.51)"/><path d="M877.75,562.51c4.3,1,8.6,2,12.92,2.92,3.21.68,6.64.73,9.64,1.92a77.1,77.1,0,0,1,11.45,6.16c.53.32.67,2.28.21,2.93a2.91,2.91,0,0,1-2.87.29c-4.06-3.59-8.85-3.9-13.94-4-2.51-.06-4.95-1.76-7.49-2.44-2.8-.75-5.67-1.23-8.53-1.73-.79-.13-1.66.21-2.47.11-3-.36-6.51.13-7.67-3.9,2.36-.53,4.72-1.08,7.09-1.58a7.41,7.41,0,0,1,1.49,0Z" transform="translate(-193.44 -240.51)"/><path d="M777.1,575.27l-5.49-3.91c1.61-1,3.39-3.05,4.8-2.82,2.06.33,3.87,2.28,5.79,3.53Z" transform="translate(-193.44 -240.51)"/><path d="M814.33,575.76,809,573c1.83-.71,3.69-2,5.47-2s3.48,1.65,5.22,2.56Z" transform="translate(-193.44 -240.51)"/><path d="M434.16,543.85a20.88,20.88,0,0,1-20.1-12.71c-3.74-8.79.26-16.75,10.55-20,10.65-3.33,21.33-2.55,31.65,1.5C474.21,524.94,450.16,546.67,434.16,543.85Zm1.76-5.54c6.34-1,13.44-1.81,17.56-9C457.56,500.73,396.21,530,435.92,538.31Z" transform="translate(-193.44 -240.51)"/><path d="M509.59,558.27c-9.58-.6-16.71-2.44-21.39-9.23-.86-1.24-.62-3.25-.88-4.9,1.57.42,3.76.33,4.63,1.35,6.54,11,22.07,7.46,31.54,1.3,3-1.93,4-6.86,5.93-10.39.74-1.33,4.67-1.12,4.94.4a8.62,8.62,0,0,1-.75,5.25c-3.44,6.38-7.76,11.88-15.41,13.66C514.74,556.52,511.38,557.73,509.59,558.27Z" transform="translate(-193.44 -240.51)"/><path d="M512.75,523.8c3.1.53,6.22,1,9.3,1.63.64.14,1.13,1,1.69,1.57-.69.21-1.37.48-2.07.62-8.68,1.77-17.35,3.55-26,5.27a21.41,21.41,0,0,1-3.31.15c.57-1.09.86-2.6,1.76-3.19C499.72,526.19,505.63,523.18,512.75,523.8Z" transform="translate(-193.44 -240.51)"/><path d="M487.3,544.18a16.47,16.47,0,0,1,.18-2.65,19.14,19.14,0,0,1,5.82-10.71l4.13,1.71c-.7.55-5,4.09-5.12,9.76a11.78,11.78,0,0,0,1.28,5.46Z" transform="translate(-193.44 -240.51)"/><path d="M487.76,542.14" transform="translate(-193.44 -240.51)"/><path d="M488.75,543.56" transform="translate(-193.44 -240.51)"/><path d="M522.32,525.54a23.3,23.3,0,0,1,6,3.62,23.59,23.59,0,0,1,5.77,7.1l-4.65.14a20.05,20.05,0,0,0-1.16-2.2c-.89-1.49-4.15-6.92-7.73-6.62a3.71,3.71,0,0,0-.69.12" transform="translate(-193.44 -240.51)"/></svg>