<svg id="_8_Mickey_Image" data-name="8 Mickey Image" xmlns="http://www.w3.org/2000/svg" viewBox="0 0 779.52 1241.82"><path d="M647.79,688c73.48,48.18,11.51-30.36,122,4.09,27.09,8.53,41.82,33.23,30.73,60.44-11.64,30.76-53.91,33.25-82.32,30.73-13.65-1.71-11.7,29.89-16.81,39.4-1.73,7.77.2,13.81,7,19.69,19.53,15,31.73,36.22,49.39,52.32,13.5,8.21,26,18.49,35.07,31.41,16.92,21.7,13.37,52,3.55,76.6-.82,1.71.65,5.84,2.37,7.21,44.81,26.65,122.15,77.68,74.54,135.72-3.63,3.78-3.27,6.38-.5,10.16,5.18,10,14.72,9.27,24.68,9.81,9.43,1.08,17.42,4.47,21,13.39,25-5.56,51.45-13.46,73.41,3.55,8.71,6.46,5.74,19.83,11.46,28.47,6.86,23.9-28.45,40.15-48.42,43.54-25.09,2.88-51.79,5-76.19-1.1-11.53-9-27.84-3.21-41.29-7.47-14.94-2.75-3.36-19.24-6.83-29.24-2.67-15.16,18.22-20.09,6.22-35.18-49.15,38.87-116.11,37.15-175.08,28.16-14-3.17-1.84,13.68-7.17,21.7,1.94,5.54,5.49,11.87-2.4,14-17.16,9-36,4.06-54.32,9.69-22.53,3.28-46.37,10.48-68.87,3.87-20-7.39-55-20-37.81-45.9-5.81-37.19,21.32-39.59,50.63-38.69-5.26-11.88-67.34-21.16-49.1-25.6,21-.47,40.56,8.85,57.6,20.5,7.34,6.85,13.34-4,22.07-3.47,11.38-10,10-34.32,17.15-48.65,1.5-16.36,28-55.28,15.29-66.14-16.27-9.65-7.07-23.12.19-35.36.67-1.84.09-5.19-1.26-6.54-26.32-24.42-14.17-59.68-17.31-90.35.71-35.48-25.7-45.57-50.81-61.43-13.07-9.28-20.8-27-36-32.4-20.94-2-31-20.77-37.84-38.2-9.1-10-22.49-14.87-27.11-29.08-6.63-10.2-2.78-25.74,11.87-21.89,9.48,2,14.36,13.76,22.94,16.57,7.82-9.87-18.84-57.9-20.83-74.52-6.66-26-6.24-27.51-30.35-39.61-13.23-7.6-21.86,30.12-34.86,17.22-15.18-18.24-2.88-44.07,15.84-54.07,3.19-2.13,4.35-4.35,3.1-7.29-7-22.62-25.53-43.4-23.19-67.77,0-8.76,11.72-5.67,13-13.06,10.93-26,50,14.13,56.23,29.11,7.1,24.08,39.17,25.07,41.6,52.22,5.95,18.67.4,37.77-17.73,47-9.9,23.24,17.31,62.63,25.8,85.94,1.86,3.75,5.62,5.24,7.91.57,5.71-11,13.7-20,23.22-27.67,10.83-8.77,22.57-15.75,36.48-18.48,11-2.72-18.2-31,4.42-53.81,11.69-25,49.22-24.2,45.67-38.14-3.18-9.63-1.11-27-13.18-29.66C557.8,554.7,555.68,530,549.46,493c-9.44-18.51-28.88-60.24-.39-69.15,2.25-.5,4.48-.65,4.35-4.18,1.44-26.91,43.69,8.75,51.74,17.29,15.6,14.41,24.41,33.82,36.31,51.1,10.78,9.93,27.76,12.6,33.28,28.4,8.35,24.24-7.66,58-25.75,20.86-4.51-8.61-12.06,9.19-15.69,12.4-3.4,10.62,5.69,21.47,8.41,31.59,1.65,8.3,2.95,16.52,12.59,18.85C700.06,617,685.25,671.89,647.79,688Zm83.4,520.7c42-2.5,84.61-7.27,107.68-45.11,2-12.95-13.93-23.24-20-34-15.48-16.58-28.75-34.81-41.14-53.79-14.3-11.46-40.78,11.52-53.89-8.24-4.76-5-4.85-16.49-13.73-15.76-10,3.11-29-3.68-33.95,6.67-2.12,7.19-2.59,20.76-13.23,18.91-10.45.57-29.39-13.07-33.49,1.44-6.72,29.17-16.3,57.86-20.55,87.54-.92,8.75,13.08-.2,15.33,8.61C633.76,1212.49,702.06,1205.52,731.19,1208.7ZM731,1043.4c-1.68,2.22-2.17,3.58-2.95,3.77-11.93,7.14,6.5,25.61,17.11,22.29,17.78-3.76,58.84-9.07,57.9-32.34-3.87-6-7.9-23.33-17.57-17.35a6.71,6.71,0,0,1-6,2c20.76-42.29,28-84.24-16.61-114.8-17.06-17.16-15.41,20.28-41.31,31.12-26.17,19.8-56.19,20.23-87.32,19.67,12.47,11.31,6.14,32.63-10.81,33.84-19.32,0-30.33-30-10.44-36.91,3.91-1.46,3.14-4,.67-6.06-4.86-2.35-16.18-17.51-19-8-4.18,24.34-2.84,50.53,16.88,68.22,2.95,4.66-2.5,10-5.06,13.82-17.34,28.24,35,42.78,55.08,49,13.84-1.55,8.36-18.86.94-25.55C683.08,1050.74,707.5,1047.48,731,1043.4Zm-204.21-312c-5.59,5.13-6.57,13.91-11.75,19.5-6.88,14.58,18.26,36,23.09,50.93,6,10.7,13.21,18.26,26.25,20.4,22.94,5.92,49,12.69,68.27,26-19.55-1-38.58-13.91-58.77-16.6-3.22-.9-7.27-4.1-9.28-.45-.26,9.18,27.92,39.91,36.62,43.35,46.47.69,104.5-30.08,49.64-72.57-22.57-13.67-47.11-18.94-72.86-21,23-14.78,42.6-34.68,53.84-60.18,6.82-19.66-26.51-6.9-36.05-5.81-16.08,7-40.09,6.64-51.06,20.31-2,9.52-22.08,43.4-26.31,19.41C519.76,746.55,530.45,739.84,526.81,731.43Zm93.87,466.49c-4,.55-7.84.5-11.5-1.58,22.25-13.93-.53-32.44-4.13-16.56-.71,3.43,3.41,9.4-2.22,9.87-16.56,3.46-19.77-4.6-31.61-11.22-13.53,8.21,5.81,12.64,10.38,18.09-13,9.16-32.76-20-68.13-11-25,7.19-5.4,43.9,11,50.2,36,13.44,75.42,2.58,112.26-2C660.07,1225.21,639.84,1194.57,620.68,1197.92Zm234.72,2.43c-11.1-1.51-17.89,14.83-12.39,23.28,2.57,14.31,102.8,17.93,116.43,13.68,42.2-21.19,37.6-64.69-15.17-54.15-8.44.34-55.55,24.15-49.07,6.82,2.87-2.62,8.28-7.72,7-11.54-24.92-9.36,11.59,21.33-50.95,4.87,1.27,10.48,11.88,8.3,17.44,14.73C865,1201.58,860,1200.17,855.4,1200.35ZM878.76,1112c.17-35.36-33.78-53.81-61.07-68.27-5.45-2.62-6.83,8-11.28,10-8.63,15.84,43.43,65.68,53.28,83.13C869.09,1145.63,879.05,1120,878.76,1112ZM542,852.6c-8.76-27.13-40.55-54.15-56-81.81-8.35-7.89-3.59,11.37-13.81,14-5.78,16.36,17.22,36.34,34.11,34.77,4.94.23,7.82,2.52,9.91,6.9C521.77,838.13,532.63,844.62,542,852.6Zm93.92,120c.84-15.38-27.5-20.24-26.67-.12C609.82,989.76,637.09,994.2,635.88,972.61Zm248.68,272.45a36.54,36.54,0,0,0,27.45,2C903,1245,894.06,1242.14,884.56,1245.06ZM620,1242.81c-.53,5.55,8.07.89,11.77,1.42C631.82,1239.59,623.48,1243.51,620,1242.81ZM538.22,1249c-.46,5.18,11.09,1.73,15.31,3.13C552.33,1248.32,542.47,1250.52,538.22,1249Z" transform="translate(-224.65 -19.82)"/><path d="M381.5,19.82c45.12,3.81,180,106,204,145,19.5,34.79-42.92,68.31-12.89,88,20.33,25.17-14.22,40.12-36.1,33.5-6.33-.19-11.06,1.65-14.76,7.72-18.72,31.12-43,58.77-73.54,78.87-37-1.35-73.51-20.44-110-29.24-25.25-11.13-111.75-23.69-113.13-55-4.35-75.84,19.34-154.46,75.9-207.15C324.4,57.38,344.08,21.07,381.5,19.82ZM341.64,170.44c22.74-1.06,48.47,20.51,29.19,42.58-3.72,3.71-3.76,7.57.18,10,18.2,9.44,99.37,58.15,111.52,37.79,23.46-28.36,43.69-59.85,71-84.79,4.46-7.72,28.91-12.31,17.46-22.1C549.6,138,531.29,118.58,508.89,104,475.4,78,439.31,56,401.63,36.64c-52.1-27.61-93.8,65.24-125.35,95.17-35.46,44.37-42.21,103.41-43.74,158.45,8.72,25.3,90.23,36.34,116.07,50.41,13.31,1.55,89.79,36.77,89.71,21.16-7.87-30,55.49-93.41,24-94.41-37.58-8.23-71.31-35-106.79-44C289.76,251.09,280.43,174,341.64,170.44ZM582,178.05c-6.4-43.43-82.34,74-93.75,85.06-10,14,23.06,11.69,30.75,15.07,10.75,2,13.46-12.8,19.58-19.05C555,233.09,578.26,210.15,582,178.05ZM445.38,364.79c9.83-2,92-82.8,67.37-84-11.15,0-27.18-11.44-35.53-1.14C464.61,306.79,440.27,333,445.38,364.79ZM340.86,176.65c-23.43-4.09-47.79,30.5-27.43,45.16,8.28,4.71,47.44,7.85,36.52-8-6.49-6.59-16.88-10.46-20.7-19,10.19-2.94,16.64,11.27,24.82,15.73C381.32,225.19,381.57,173.13,340.86,176.65Zm229.43,91.48c.31-7.93-10.81-21-18.5-14.29-2,6-21.47,24.63-9.13,25.83C554.06,281.41,570.24,283.57,570.29,268.13Z" transform="translate(-224.65 -19.82)"/><path d="M692,999.86c-36.64-4.63-22.48-48.77,10.39-34.28C716.28,973.7,710.84,1001.76,692,999.86Zm.47-33.16c-24.43-.1-22.39,29.66-.81,29.87C711.89,998.91,710.77,967.17,692.46,966.7Z" transform="translate(-224.65 -19.82)"/></svg>