<svg id="_9_Mickey_Image" data-name="9 Mickey Image" xmlns="http://www.w3.org/2000/svg" viewBox="0 0 1146.23 836.24"><path d="M672.85,983c-37-3.77-78.31,10.52-109.59-12.32-10.31-9.52-34.75-20.2-19.77-36.81,5.3-64.51,47.83-48.3,94.15-44.17-25.89-42.12-67.68-34.25-29.85-96.56,3.42-19.19-36.26-10.4-14.45-48.08a14.7,14.7,0,0,0,1-14.18c-14.72-36.08-5-77.12,13.85-109.25-31.09,2-62.71,9.09-94.09,12.08-6.69.45-12,.87-10.29,9,3.74,37.1-29.17,75.51-67.6,65.2-5.73-2.35-10.41-9.15-17.3-4.61-17.83,11.16-39.56,7.16-52.36-9.42-9-9.5,4.55-18.49,9.38-26.27,5.75-11.82-88.47-9.4-103-13.62-10.24.33-22.22-5-31.46.47-27.62,25.35-87.32,19.07-92.58-22.84-9.73-44.48,43.91-75.39,82.62-61.88,76.67,44.43-25.71,53.82,144.55,61.42,11.06.36,11.51.5,15.34-10.13,14.49-45,73.32-41.91,100.41-10.81,50.74,3.45,103.77-21.87,155.09-28.5,12.56-5.23,17.63-19.44,30.9-24.17,4.2-1.63,15-9.6,5.56-11.57-21.78-5-47-14.92-55.47-37.54-1.47-4.58-5.45-5.87-9.28-7.56-14.37-3.94-37.05-34.73-12.77-39.48,11-2.41,21.28,8.09,31.23.31,12.07-15.17,40.93,2.33,31-18.86-3.23-10,4.27-23.61-2.2-32.08-51.4-27.05-109.63-42.33-167.9-40.27-12.13,10.23-18,28.55-29.69,40.34-17.1,17.74-47.06,18.74-65.81,3.46-6.66-6-21.54,17.77-31.83,21-13.17,5.59,17.69,22.84,4.9,57.3-16.89,41-94.47,37.9-107.22-5.64-9.11-41,34.43-76.93,73.69-66,11.79-2.33,21.81-28.42,35.17-36.18,9.72-9.23-8.87-25.11,5.38-50.71,10.31-41.47,63.21-50.79,98.06-35.68,26.71,21.55,11.32,36.23,30.84,34.05,56.76,4.4,111.45,25.72,161.95,51.06,3.27,1.8,5.25,1.12,6.48-2.42,7-20.31,22-34.95,36.09-50.18,12.77-9.66,15.59-11.4,2.36-24-23.93-35.72,9-85.8,48.49-91.52,56.33-13.4,129.83,49.55,67.4,94.26,21.9,10.19,46.27,17.41,62.17,37,15-.8,12-43.48,64.16-41.12,74-2.7,128.92,85.39,37.48,112.59-51.32,16.77-67-17.89-71.52,3.31-3.95,43.37-23.4,84.11-61.2,107.92-7.57,4.49-7.43,4.46-5.84,12.94C879.92,609.16,851,615,831,670.09c2.22,28.66-2.22,53-16.45,78.75,3.41,14.55,34.59,29.19,10.87,43.68-4.56,2.76-4.15,4.94-1.4,8.57,44.62,59.6,114.26,88,179.28,119.12,90.11,45.94,194.7,52,290.62,71.09-149.6,5-295.06-58.16-425.48-127.85,15.79,29.7-5.85,49.71,16.76,54.5,24.79,6.51,2.7,30.17,16.25,32.41,29.39,2.29,83.53,3.12,76.91,45.48-5.56,12.91-5,36.43-21.1,40-39.47,1.53-88.58,30.67-122.28-.16-13.71-17.75-42.11-33.17-36.36-58.78-1.47-11.23,14-29.81,7.21-35.64-11.92-8.08-3-26.46,9.81-27.17,6.09-2,20.06,4.76,21-3.9-.47-14.28-.75-28.57-1.38-42.85-4.65-21.55-30.18-31.55-44.21-47.08-4.45-3.82-7.45-3.21-13.16-.63-70.54,27.27-34.92-32.34-66.53-26-8.66,0-17.32-.47-26-.87-11.12,1-6.07,21.53-28.93,17.28-21.38-7.56-27.7-5.18-33.26,17.7.54,17.61,30.81,27.46,42.08,40.23a58.61,58.61,0,0,1,17.66,12c12.68,4.25,43.87,3.55,37.73,25.23-2.15,16.32,24.63,24.51,14.22,45.66-.92,2.71-1.28,4.68,1.83,6.63C748.16,987.34,689.28,980.05,672.85,983ZM727,545.88C789.78,550,860.35,498.6,855.91,432.12c-3.62.85-7.12,2.62-10.88,2.37,2.33-8.16,20.47-18,27.12-10.6-3.94,3.29-9.38,2.43-9.25,8.91-2.25,17-4.9,33.83-13.21,49.26-10.29,26.33-33.79,40.84-56.51,55.79-2.49,2.15-13.88,5.57-7.12,8.75,59.67,1.46,121.09-44.34,131.18-104.24,3.13-22-13.13-41.67-34.27-44.63-26.19-7.17-59.1,57.71-81.85,63.53,34.79-34.3,50.44-120.59-15.94-127.21-21.64-.22-45.58,12.52-50.64,35-.75,3.06-1.51,6.73-5.11,7.52-1.66-10,4.44-21.12,4.44-31.67-11-30.16-51.67,43.63-51.74,57.14,4.76,19.11,14.55,38.63,6.6,59.28-.76,2.71-2.46,3.89-4.76,2.49-12.79-6.31-27.5-1.79-40.08,2.6-7.22,2.85-2.44,8.86,2.48,11.56,9.57,8.49,7.43,25.08-5.65,27.23C620,525.88,711.13,551.83,727,545.88Zm21.16,164.8c0,.42,0,.83,0,1.25-52.38-.83-119.31-27.33-120.78-88.06.18-3.66-1.79-4.68-4.66-2.55-30.54,29.35-35.18,85.95-14.48,122,1.8,2.64,1.51,4.48-2.3,3.78-11.54-.94-15.76,22.42-5.33,27,21.11,9.87,41.78,36.38,66.88,27.61,8.18-4.44,5.76-11.89.67-17,16.7-1.4,34.57,3.33,51.94.64,23.36-4.18,4.49,40.83,36.46,33,6.2-2.57,15.84-2.51,20.42-7.33.42-5.55-5.15-11.07-10.56-7.28-7.52,3.53-14.1,10.06-22.56,10.83C761,793.8,794.63,787,820,777.74c4.17-1.25,5.11-3.26,2.53-6.92-8.39-12.87-15.08-16.48-26.6-4.29,14.12-23.18,38.85-54.91,27.32-82.74C800.41,697.4,778,716.16,748.15,710.68Zm-100,261c12.63-.69,25.29-1,37.86-2.21,9.92,1.62,25.89-10.76,32.2-1.31,3,5.33,7.38.17,10.78-1.85-5.54-5.26-11.67-6.91-4.43-14.58,7.68-14.17-5.81-37.14-21-40.28,36-25.06-57.39-35.78-59.09-10.6-.49,2.63-2,4.59-5.35,2.68C624.73,895.32,609,893.34,592.6,893,553,891.75,541.41,935.36,573,955.9,594.07,972.28,622.79,970.39,648.17,971.71Zm218.35,63.41c24.35-8.1,98.32-5.52,101.25-35.22,11.62-51.08-64.61-34-92.32-43.59,2.89-4.53,9-2.49,11.74-6.61-3.88-2.13-7.67,2.11-11.6-1.24,6.93-10.34,24.38-17.25,2.22-24.45-3.65-1.42-6.13-.9-6.44,3.75-2.28,12-21.62,7-30.78,11.28-7,1.34-9.56-1.08-8.28-8,2.67-22.54-53-2,2.12,15.53a8.36,8.36,0,0,1-7.27,1.44c-25.29.16-20.81,36.7-8.21,49.47C833.7,1010.52,845,1034.15,866.52,1035.12ZM329.07,516.75c76.27-1.09,43.11-114-20.9-88.85C254.1,452.07,264,522.05,329.07,516.75ZM210.64,572.6c-35.58-2-74.66,43.47-47.62,75,18.5,17,47.64,24.62,67.85,5.73,4.12-3.67,4.26-5.6.33-9.42-11.89-13.68,8.69-25.08,21.33-23.15,15.9-7.86-1.31-29.84-9.34-38.56C234,575.09,223.53,573.06,210.64,572.6Zm155.14,85.13c12.54-.3,20.52.17,20.81-15.92,1-5.79-5.95-4.83-9.75-5.07a772.51,772.51,0,0,1-83.4-5.8c-15.62,1.63-53.54-13.26-59.47,5.67C242.35,653.74,341.67,652.39,365.78,657.73Zm45.75-269.3c-18.69-28.75-42.41,16.71-55.79,30.12-4.94,5.54-4.91,6.76,2,13.77,3.8,3.86,5.85,3.47,10.85-1.07C382.66,416.68,402.26,406.83,411.53,388.43Zm399,405.12c3.76-3,11.6-3.79,11.8-9C817.27,780.21,797.85,788.88,810.55,793.55ZM550.74,942.86c-6.72,3.87,5.3,12.37,9.37,13.3C559.16,950.85,554.45,946.65,550.74,942.86Z" transform="translate(-147.71 -213.54)"/><path d="M717.58,442.05c9.48-59.55,31.5-5,20.65,23.09-2.14,6.47-11.4,19-17.1,8.42C717.5,463.26,719.06,455.16,717.58,442.05Z" transform="translate(-147.71 -213.54)"/><path d="M630.14,673.45c1.92,17.18-22.88,43.82-29.75,16.23C596.88,673.07,627.43,644,630.14,673.45Zm-5,2.64c-11.4-25.22-30.65,30.73-7.45,15.92C620.81,687.33,622.6,681.76,625.14,676.09Z" transform="translate(-147.71 -213.54)"/><path d="M654.73,725.27c-2.76-21.77,28.46-32.83,33.86-8.42C696,742.61,653.49,759.66,654.73,725.27Zm30-.43c-3.18-26.53-27.93-16.61-25.51,5.76C663.19,750.78,685.29,740.83,684.71,724.84Z" transform="translate(-147.71 -213.54)"/></svg>